<svg width="1643" height="847" viewBox="0 0 1643 847" fill="none" xmlns="http://www.w3.org/2000/svg">
<g clip-path="url(#clip0_754_2)">
<path d="M317.73 731.65L293.33 537.06C283.72 460.45 338.33 398.34 415.39 398.34H544.24" stroke="#2E186A" stroke-width="6" stroke-linecap="round" stroke-linejoin="round"/>
<path d="M625.001 394.92L641.001 372.39L636.791 342.14C635.661 340 634.501 337.77 633.311 335.47C545.941 348.47 535.311 385.08 554.931 424.29C410.001 452.59 346.901 675.05 384.601 780.6C395.341 810.6 403.961 840.6 435.871 840.94" stroke="#2E186A" stroke-width="6" stroke-linecap="round" stroke-linejoin="round"/>
<path d="M670.571 475.79C670.571 475.6 670.571 475.41 670.571 475.22C675.311 475.68 679.911 475.71 684.351 471.87C695.351 462.34 699.251 459.48 699.251 459.48C699.251 459.48 700.251 460.68 702.021 462.71C704.191 458.71 706.451 454.559 708.761 450.359C661.271 413.579 625.001 394.92 625.001 394.92L622.321 393L604.881 414.27C604.881 414.27 633.261 433.83 670.571 475.79Z" fill="#FE7624"/>
<path d="M900.131 821.06C900.131 821.06 824.131 616.67 833.801 553.33C839.071 518.78 830.801 479.6 819.381 449.33L797.611 450.74L771.551 512.36C773.251 512.78 774.951 513.13 776.651 513.36C776.651 513.36 775.651 519.83 773.191 534.7C771.541 544.61 774.371 545.7 776.611 552.58C779.501 557.21 781.721 562.41 779.281 570.45C778.481 573.08 776.581 597.85 772.281 631.45C780.281 648.45 787.921 666.39 795.081 685.45C841.161 808.37 836.371 821.78 836.371 821.78L900.131 821.06Z" fill="#FE7624"/>
<path d="M1157.5 839.33C1152.03 803.33 1113.02 610.1 889.842 440.61C884.842 410.33 872.192 362.67 807.182 340.39" stroke="#2E186A" stroke-width="6" stroke-linecap="round" stroke-linejoin="round"/>
<path d="M851.902 542.57C851.902 542.57 849.502 607.85 863.792 654.78" stroke="#2E186A" stroke-width="8" stroke-linecap="round" stroke-linejoin="round"/>
<path d="M886.88 439.86C887.59 444.12 888.14 448.04 888.67 451.48C894.81 491.3 881.67 517.74 872.98 536.07C896.31 519.57 912.04 488.19 919.98 464.26C910.39 456.58 897.3 447.62 886.88 439.86Z" fill="#2E186A"/>
<path d="M557.241 422.52C540.921 425.85 514.101 433.98 494.771 447.35C508.271 454.71 575.132 494.75 629.772 518.77C630.202 518.52 633.202 513.52 634.702 511.57C604.462 487.59 572.651 453.41 557.241 422.52Z" fill="#2E186A"/>
<path d="M601.251 263.25C601.251 263.25 564.141 273.31 579.161 305C589.601 327 609.421 319.18 621.241 312.51" stroke="#2E186A" stroke-width="6" stroke-linecap="round" stroke-linejoin="round"/>
<path d="M611.15 269.27L622.81 265.36C630.5 270.01 655.9 301.57 664.09 317.21C664.09 317.21 701.38 293.02 759.59 277.55C759.59 277.55 791.28 270.31 805.06 270.89C801.06 238.89 792.88 198.01 778.48 161.46C757.06 107.13 690.78 128.21 681.16 131.46C577.79 166.63 611.05 269.04 611.05 269.04L611.15 269.27Z" stroke="#2E186A" stroke-width="6" stroke-linecap="round" stroke-linejoin="round"/>
<path d="M727.491 403.37C715.051 403.37 703.221 401.3 693.911 397.62C663.711 385.69 657.291 378 646.451 359.86C635.611 341.72 601.641 272.47 601.641 272.47L622.811 265.36C630.501 270.01 655.901 301.57 664.091 317.21C664.091 317.21 701.381 293.02 759.591 277.55C759.591 277.55 791.591 270.23 805.281 270.89C805.281 270.89 811.821 303.43 807.901 335.33" stroke="#2E186A" stroke-width="6" stroke-linecap="round" stroke-linejoin="round"/>
<path d="M604.241 281.52C604.241 281.52 585.121 259.35 571.311 232.86C558.311 207.96 563.701 177.11 585.251 159.11C603.291 144 620.461 148 620.461 148C620.461 148 589.401 116.36 613.891 75.4299C618.177 68.2684 623.881 62.0574 630.653 57.1774C637.424 52.2974 645.121 48.8513 653.271 47.0499C693.471 38.2399 714.271 68.8999 714.271 68.8999C714.271 68.8999 737.371 -20.2901 836.581 4.24993C846.581 6.72993 859.811 17.3099 866.781 24.9099C909.001 70.9999 829.461 158 781.071 175.42C727.941 194.54 693.771 193.49 672.891 184.55C687.901 189.12 688.451 273.79 604.241 281.52Z" fill="#2E186A"/>
<path d="M757.571 253.95L776.311 303.81L757.051 303.71" stroke="#2E186A" stroke-width="8" stroke-linecap="round" stroke-linejoin="round"/>
<path d="M747.281 347.02C752.511 347.02 756.751 342.78 756.751 337.55C756.751 332.32 752.511 328.08 747.281 328.08C742.05 328.08 737.811 332.32 737.811 337.55C737.811 342.78 742.05 347.02 747.281 347.02Z" fill="#2E186A"/>
<path d="M779.739 258.073C782.643 257.347 784.086 253.114 782.962 248.619C781.838 244.124 778.572 241.068 775.668 241.794C772.764 242.521 771.321 246.753 772.446 251.249C773.57 255.744 776.835 258.799 779.739 258.073Z" fill="#2E186A"/>
<path d="M728.886 269.848C731.789 269.121 733.232 264.889 732.108 260.393C730.984 255.898 727.719 252.843 724.815 253.569C721.911 254.295 720.468 258.528 721.592 263.023C722.716 267.518 725.982 270.574 728.886 269.848Z" fill="#2E186A"/>
<path d="M693.66 229.94C695.462 225.874 698.322 222.366 701.942 219.782C705.562 217.198 709.809 215.633 714.24 215.25" stroke="#2E186A" stroke-width="8" stroke-linecap="round" stroke-linejoin="round"/>
<path d="M762.32 202.32C762.32 202.32 775.96 194.89 782.59 205.9" stroke="#2E186A" stroke-width="8" stroke-linecap="round" stroke-linejoin="round"/>
<path d="M1354 562.9H965.199C962.723 562.901 960.319 563.738 958.377 565.275C956.435 566.812 955.069 568.96 954.499 571.37L900.439 800.19H759.509C759.509 800.19 751.699 840.53 797.239 840.53H1293.63C1296.11 840.529 1298.51 839.692 1300.45 838.155C1302.39 836.618 1303.76 834.47 1304.33 832.06L1364.72 576.43C1365.1 574.813 1365.11 573.132 1364.75 571.51C1364.39 569.889 1363.67 568.371 1362.64 567.069C1361.6 565.767 1360.29 564.716 1358.8 563.994C1357.3 563.272 1355.66 562.898 1354 562.9Z" fill="#2E186A"/>
<path d="M1199.76 206.24H1196.7C1193.94 206.24 1191.7 208.478 1191.7 211.24V219.13C1191.7 221.891 1193.94 224.13 1196.7 224.13H1199.76C1202.52 224.13 1204.76 221.891 1204.76 219.13V211.24C1204.76 208.478 1202.52 206.24 1199.76 206.24Z" fill="#FE7624"/>
<path d="M1181.68 206.24H1101.88C1099.12 206.24 1096.88 208.478 1096.88 211.24V219.13C1096.88 221.891 1099.12 224.13 1101.88 224.13H1181.68C1184.44 224.13 1186.68 221.891 1186.68 219.13V211.24C1186.68 208.478 1184.44 206.24 1181.68 206.24Z" fill="#2E186A"/>
<path d="M1189.81 289.34H1101.88C1099.12 289.34 1096.88 291.578 1096.88 294.34V302.23C1096.88 304.991 1099.12 307.23 1101.88 307.23H1189.81C1192.57 307.23 1194.81 304.991 1194.81 302.23V294.34C1194.81 291.578 1192.57 289.34 1189.81 289.34Z" fill="#2E186A"/>
<path d="M1268.53 261.67H1126.64C1123.88 261.67 1121.64 263.908 1121.64 266.67V274.56C1121.64 277.321 1123.88 279.56 1126.64 279.56H1268.53C1271.29 279.56 1273.53 277.321 1273.53 274.56V266.67C1273.53 263.908 1271.29 261.67 1268.53 261.67Z" fill="#FE7624"/>
<path d="M1359.07 261.67H1287.03C1284.27 261.67 1282.03 263.908 1282.03 266.67V274.56C1282.03 277.321 1284.27 279.56 1287.03 279.56H1359.07C1361.83 279.56 1364.07 277.321 1364.07 274.56V266.67C1364.07 263.908 1361.83 261.67 1359.07 261.67Z" fill="#FE7624"/>
<path d="M1386.84 234.01H1383.78C1381.02 234.01 1378.78 236.248 1378.78 239.01V246.9C1378.78 249.661 1381.02 251.9 1383.78 251.9H1386.84C1389.6 251.9 1391.84 249.661 1391.84 246.9V239.01C1391.84 236.248 1389.6 234.01 1386.84 234.01Z" fill="#2E186A"/>
<path d="M1248.94 233.96H1101.88C1099.12 233.96 1096.88 236.199 1096.88 238.96V246.85C1096.88 249.611 1099.12 251.85 1101.88 251.85H1248.94C1251.7 251.85 1253.94 249.611 1253.94 246.85V238.96C1253.94 236.199 1251.7 233.96 1248.94 233.96Z" fill="#2E186A"/>
<path d="M1295.32 206.24H1215.52C1212.76 206.24 1210.52 208.478 1210.52 211.24V219.13C1210.52 221.891 1212.76 224.13 1215.52 224.13H1295.32C1298.08 224.13 1300.32 221.891 1300.32 219.13V211.24C1300.32 208.478 1298.08 206.24 1295.32 206.24Z" fill="#2E186A"/>
<path d="M1366.76 233.9H1265.97C1263.21 233.9 1260.97 236.138 1260.97 238.9V246.9C1260.97 249.661 1263.21 251.9 1265.97 251.9H1366.76C1369.52 251.9 1371.76 249.661 1371.76 246.9V238.9C1371.76 236.138 1369.52 233.9 1366.76 233.9Z" fill="#FE7624"/>
<path d="M1181.68 385.61H1101.88C1099.12 385.61 1096.88 387.848 1096.88 390.61V398.5C1096.88 401.261 1099.12 403.5 1101.88 403.5H1181.68C1184.44 403.5 1186.68 401.261 1186.68 398.5V390.61C1186.68 387.848 1184.44 385.61 1181.68 385.61Z" fill="#2E186A"/>
<path d="M1189.81 468.71H1101.88C1099.12 468.71 1096.88 470.949 1096.88 473.71V481.6C1096.88 484.361 1099.12 486.6 1101.88 486.6H1189.81C1192.57 486.6 1194.81 484.361 1194.81 481.6V473.71C1194.81 470.949 1192.57 468.71 1189.81 468.71Z" fill="#2E186A"/>
<path d="M1268.53 441.05H1126.64C1123.88 441.05 1121.64 443.288 1121.64 446.05V453.94C1121.64 456.701 1123.88 458.94 1126.64 458.94H1268.53C1271.29 458.94 1273.53 456.701 1273.53 453.94V446.05C1273.53 443.288 1271.29 441.05 1268.53 441.05Z" fill="#FE7624"/>
<path d="M1359.07 441.05H1287.03C1284.27 441.05 1282.03 443.288 1282.03 446.05V453.94C1282.03 456.701 1284.27 458.94 1287.03 458.94H1359.07C1361.83 458.94 1364.07 456.701 1364.07 453.94V446.05C1364.07 443.288 1361.83 441.05 1359.07 441.05Z" fill="#FE7624"/>
<path d="M1386.84 413.38H1383.78C1381.02 413.38 1378.78 415.618 1378.78 418.38V426.27C1378.78 429.031 1381.02 431.27 1383.78 431.27H1386.84C1389.6 431.27 1391.84 429.031 1391.84 426.27V418.38C1391.84 415.618 1389.6 413.38 1386.84 413.38Z" fill="#2E186A"/>
<path d="M1409.68 385.61H1406.62C1403.86 385.61 1401.62 387.848 1401.62 390.61V398.5C1401.62 401.261 1403.86 403.5 1406.62 403.5H1409.68C1412.44 403.5 1414.68 401.261 1414.68 398.5V390.61C1414.68 387.848 1412.44 385.61 1409.68 385.61Z" fill="#2E186A"/>
<path d="M1248.94 413.33H1101.88C1099.12 413.33 1096.88 415.568 1096.88 418.33V426.22C1096.88 428.981 1099.12 431.22 1101.88 431.22H1248.94C1251.7 431.22 1253.94 428.981 1253.94 426.22V418.33C1253.94 415.568 1251.7 413.33 1248.94 413.33Z" fill="#2E186A"/>
<path d="M1295.32 385.61H1196.7C1193.94 385.61 1191.7 387.848 1191.7 390.61V398.5C1191.7 401.261 1193.94 403.5 1196.7 403.5H1295.32C1298.08 403.5 1300.32 401.261 1300.32 398.5V390.61C1300.32 387.848 1298.08 385.61 1295.32 385.61Z" fill="#FE7624"/>
<path d="M1392.04 385.61H1312.24C1309.48 385.61 1307.24 387.848 1307.24 390.61V398.5C1307.24 401.261 1309.48 403.5 1312.24 403.5H1392.04C1394.8 403.5 1397.04 401.261 1397.04 398.5V390.61C1397.04 387.848 1394.8 385.61 1392.04 385.61Z" fill="#FE7624"/>
<path d="M1199.76 358.8H1196.7C1193.94 358.8 1191.7 361.038 1191.7 363.8V371.69C1191.7 374.451 1193.94 376.69 1196.7 376.69H1199.76C1202.52 376.69 1204.76 374.451 1204.76 371.69V363.8C1204.76 361.038 1202.52 358.8 1199.76 358.8Z" fill="#FE7624"/>
<path d="M1181.68 358.8H1101.88C1099.12 358.8 1096.88 361.038 1096.88 363.8V371.69C1096.88 374.451 1099.12 376.69 1101.88 376.69H1181.68C1184.44 376.69 1186.68 374.451 1186.68 371.69V363.8C1186.68 361.038 1184.44 358.8 1181.68 358.8Z" fill="#2E186A"/>
<path d="M1295.32 358.8H1215.52C1212.76 358.8 1210.52 361.038 1210.52 363.8V371.69C1210.52 374.451 1212.76 376.69 1215.52 376.69H1295.32C1298.08 376.69 1300.32 374.451 1300.32 371.69V363.8C1300.32 361.038 1298.08 358.8 1295.32 358.8Z" fill="#2E186A"/>
<path d="M1366.76 413.28H1265.97C1263.21 413.28 1260.97 415.518 1260.97 418.28V426.28C1260.97 429.041 1263.21 431.28 1265.97 431.28H1366.76C1369.52 431.28 1371.76 429.041 1371.76 426.28V418.28C1371.76 415.518 1369.52 413.28 1366.76 413.28Z" fill="#FE7624"/>
<path d="M1484.34 735.41C1486.52 734.647 1488.79 734.173 1491.1 734C1494.76 733.736 1498.44 734.249 1501.89 735.505C1505.34 736.761 1508.49 738.733 1511.13 741.29C1513.76 743.847 1515.83 746.932 1517.19 750.343C1518.55 753.755 1519.17 757.415 1519.02 761.085C1518.87 764.754 1517.94 768.35 1516.3 771.637C1514.67 774.923 1512.35 777.827 1509.51 780.156C1506.67 782.486 1503.37 784.19 1499.83 785.155C1496.29 786.121 1492.58 786.327 1488.95 785.76" stroke="#2E186A" stroke-width="6" stroke-linecap="round" stroke-linejoin="round"/>
<path d="M1421.52 738.81L1384.25 693.31" stroke="#2E186A" stroke-width="6" stroke-linecap="round" stroke-linejoin="round"/>
<path d="M1378.78 724.71V810.52C1378.78 818.476 1381.94 826.107 1387.57 831.733C1393.19 837.359 1400.82 840.52 1408.78 840.52H1459.38C1467.34 840.52 1474.97 837.359 1480.59 831.733C1486.22 826.107 1489.38 818.476 1489.38 810.52V724.71H1378.78ZM1423.52 787.54C1423.83 787.718 1424.08 787.975 1424.26 788.284C1424.43 788.593 1424.52 788.944 1424.52 789.3C1424.52 789.83 1424.31 790.339 1423.93 790.714C1423.56 791.089 1423.05 791.3 1422.52 791.3C1422.17 791.305 1421.83 791.219 1421.52 791.05L1401.52 779.05C1401.18 778.888 1400.89 778.632 1400.68 778.312C1400.48 777.991 1400.37 777.62 1400.37 777.24C1400.37 776.86 1400.48 776.488 1400.68 776.168C1400.89 775.847 1401.18 775.591 1401.52 775.43L1421.52 763.43C1421.83 763.261 1422.17 763.174 1422.52 763.18C1423.05 763.18 1423.56 763.391 1423.93 763.766C1424.31 764.141 1424.52 764.649 1424.52 765.18C1424.52 765.536 1424.43 765.886 1424.26 766.196C1424.08 766.505 1423.83 766.762 1423.52 766.94L1406.31 777.26L1423.52 787.54ZM1448.52 757.96L1432.42 798.21C1432.32 798.414 1432.18 798.6 1432.02 798.76C1431.83 798.95 1431.61 799.101 1431.36 799.204C1431.12 799.307 1430.86 799.36 1430.59 799.36C1430.06 799.36 1429.55 799.149 1429.18 798.774C1428.8 798.399 1428.59 797.89 1428.59 797.36C1428.59 797.067 1428.65 796.777 1428.77 796.51L1444.87 756.26C1444.98 756.043 1445.12 755.847 1445.3 755.68C1445.48 755.491 1445.7 755.341 1445.94 755.241C1446.19 755.142 1446.45 755.093 1446.71 755.1C1447.24 755.1 1447.75 755.311 1448.12 755.686C1448.5 756.061 1448.71 756.569 1448.71 757.1C1448.71 757.41 1448.65 757.718 1448.52 758V757.96ZM1475.77 779L1455.77 791C1455.46 791.169 1455.12 791.255 1454.77 791.25C1454.24 791.25 1453.73 791.039 1453.36 790.664C1452.98 790.289 1452.77 789.78 1452.77 789.25C1452.76 788.894 1452.85 788.543 1453.03 788.234C1453.21 787.925 1453.46 787.668 1453.77 787.49L1471 777.23L1453.79 766.91C1453.48 766.732 1453.23 766.475 1453.05 766.166C1452.87 765.856 1452.78 765.506 1452.79 765.15C1452.79 764.886 1452.84 764.625 1452.94 764.381C1453.04 764.137 1453.19 763.916 1453.38 763.73C1453.57 763.542 1453.79 763.392 1454.03 763.291C1454.28 763.19 1454.54 763.138 1454.81 763.14C1455.16 763.134 1455.5 763.221 1455.81 763.39L1475.81 775.39C1476.15 775.551 1476.44 775.807 1476.65 776.128C1476.85 776.448 1476.96 776.82 1476.96 777.2C1476.96 777.58 1476.85 777.951 1476.65 778.272C1476.44 778.592 1476.15 778.848 1475.81 779.01L1475.77 779Z" fill="#2E186A"/>
<path d="M245.2 786C241.786 786.252 238.355 785.828 235.105 784.754C231.854 783.679 228.847 781.975 226.255 779.739C223.662 777.502 221.536 774.777 219.997 771.719C218.458 768.661 217.537 765.329 217.285 761.915C217.034 758.501 217.457 755.07 218.532 751.819C219.606 748.569 221.31 745.562 223.546 742.969C225.783 740.377 228.508 738.251 231.566 736.712C234.624 735.173 237.956 734.252 241.37 734C242.946 733.881 244.529 733.908 246.1 734.08" stroke="#2E186A" stroke-width="6" stroke-linecap="round" stroke-linejoin="round"/>
<path d="M241.811 724.71V810.52C241.811 818.476 244.971 826.107 250.597 831.733C256.223 837.359 263.854 840.52 271.811 840.52H322.421C330.377 840.52 338.008 837.359 343.634 831.733C349.26 826.107 352.421 818.476 352.421 810.52V724.71H241.811ZM286.561 787.54C286.869 787.718 287.124 787.975 287.3 788.284C287.475 788.593 287.565 788.944 287.561 789.3C287.561 789.83 287.35 790.339 286.975 790.714C286.6 791.089 286.091 791.3 285.561 791.3C285.211 791.305 284.866 791.219 284.561 791.05L264.561 779.05C264.217 778.888 263.926 778.632 263.723 778.312C263.519 777.991 263.411 777.62 263.411 777.24C263.411 776.86 263.519 776.488 263.723 776.168C263.926 775.847 264.217 775.591 264.561 775.43L284.561 763.43C284.866 763.261 285.211 763.174 285.561 763.18C286.091 763.18 286.6 763.391 286.975 763.766C287.35 764.141 287.561 764.649 287.561 765.18C287.565 765.536 287.475 765.886 287.3 766.196C287.124 766.505 286.869 766.762 286.561 766.94L269.351 777.26L286.561 787.54ZM328.741 779.04L308.741 791.04C308.435 791.209 308.09 791.295 307.741 791.29C307.476 791.295 307.213 791.246 306.969 791.144C306.724 791.043 306.503 790.891 306.321 790.7C306.13 790.516 305.98 790.295 305.878 790.051C305.777 789.807 305.726 789.544 305.731 789.28C305.726 788.924 305.816 788.573 305.991 788.264C306.167 787.955 306.422 787.698 306.731 787.52L323.941 777.21L306.731 766.89C306.422 766.712 306.167 766.455 305.991 766.146C305.816 765.836 305.726 765.486 305.731 765.13C305.731 764.6 305.941 764.091 306.316 763.716C306.691 763.341 307.2 763.13 307.731 763.13C308.08 763.124 308.425 763.211 308.731 763.38L328.731 775.38C329.074 775.541 329.365 775.797 329.568 776.118C329.772 776.438 329.88 776.81 329.88 777.19C329.88 777.57 329.772 777.941 329.568 778.262C329.365 778.582 329.074 778.838 328.731 779L328.741 779.04Z" fill="#2E186A"/>
<path d="M427.34 690.13L413.67 665.32" stroke="#2E186A" stroke-width="6" stroke-linecap="round" stroke-linejoin="round"/>
<path d="M396.988 692.78H472.758" stroke="#2E186A" stroke-width="6" stroke-linecap="round" stroke-linejoin="round"/>
<path d="M462.27 773.58C461.308 772.609 460.039 772.003 458.68 771.864C457.321 771.725 455.955 772.062 454.817 772.818C453.679 773.573 452.838 774.7 452.438 776.007C452.038 777.313 452.104 778.718 452.625 779.981C453.145 781.244 454.088 782.288 455.292 782.933C456.496 783.579 457.887 783.787 459.227 783.521C460.567 783.255 461.774 782.532 462.641 781.476C463.507 780.42 463.981 779.096 463.98 777.73C463.991 776.958 463.845 776.192 463.551 775.479C463.257 774.766 462.821 774.119 462.27 773.58Z" fill="#2E186A"/>
<path d="M458.11 764.82C459.469 764.83 460.79 764.367 461.847 763.511C462.903 762.655 463.63 761.458 463.902 760.126C464.175 758.794 463.976 757.408 463.341 756.206C462.705 755.004 461.672 754.06 460.417 753.535C459.163 753.01 457.765 752.937 456.463 753.328C455.161 753.719 454.034 754.55 453.277 755.679C452.519 756.809 452.177 758.166 452.309 759.519C452.441 760.873 453.038 762.138 454 763.1C454.532 763.65 455.171 764.086 455.878 764.382C456.585 764.678 457.344 764.827 458.11 764.82Z" fill="#2E186A"/>
<path d="M462.269 800.67C463.239 799.708 463.845 798.44 463.984 797.081C464.123 795.723 463.787 794.358 463.032 793.219C462.277 792.081 461.151 791.24 459.845 790.839C458.539 790.439 457.135 790.504 455.872 791.023C454.608 791.542 453.564 792.484 452.918 793.687C452.271 794.89 452.062 796.28 452.326 797.62C452.59 798.96 453.311 800.167 454.365 801.035C455.42 801.903 456.743 802.379 458.109 802.38C458.882 802.393 459.65 802.248 460.365 801.954C461.08 801.66 461.728 801.223 462.269 800.67Z" fill="#2E186A"/>
<path d="M480.209 710.88L466.919 693.59H402.829L389.539 710.88C388.265 712.474 387.561 714.449 387.539 716.49V821.75C387.59 823.435 388.073 825.078 388.941 826.523C389.81 827.967 391.035 829.165 392.499 830C396.609 832.56 401.849 836.52 402.219 840.31H467.529C467.889 836.52 473.129 832.56 477.239 830C478.7 829.159 479.921 827.957 480.785 826.509C481.648 825.061 482.125 823.415 482.169 821.73V716.49C482.154 714.454 481.465 712.482 480.209 710.88ZM452.389 731.07L459.389 719.39C459.485 719.204 459.628 719.047 459.803 718.933C459.979 718.819 460.18 718.753 460.389 718.74C460.608 718.744 460.821 718.807 461.007 718.921C461.194 719.035 461.346 719.197 461.449 719.39L468.449 731.07C468.551 731.249 468.603 731.453 468.599 731.66C468.602 731.813 468.573 731.964 468.515 732.105C468.456 732.246 468.369 732.374 468.259 732.48C468.152 732.591 468.023 732.68 467.88 732.74C467.737 732.8 467.584 732.831 467.429 732.83C467.225 732.824 467.026 732.766 466.851 732.661C466.675 732.556 466.53 732.407 466.429 732.23L460.429 722.23L454.429 732.23C454.327 732.407 454.182 732.554 454.007 732.659C453.832 732.764 453.633 732.823 453.429 732.83C453.274 732.831 453.121 732.8 452.978 732.74C452.835 732.68 452.706 732.591 452.599 732.48C452.488 732.374 452.399 732.247 452.339 732.106C452.279 731.965 452.248 731.813 452.249 731.66C452.242 731.454 452.29 731.25 452.389 731.07ZM452.849 735.47C453.048 735.322 453.291 735.245 453.539 735.25C453.694 735.249 453.847 735.279 453.99 735.339C454.133 735.4 454.262 735.488 454.369 735.6C454.48 735.707 454.567 735.836 454.626 735.979C454.684 736.122 454.713 736.276 454.709 736.43C454.716 736.573 454.691 736.716 454.638 736.849C454.584 736.981 454.503 737.101 454.399 737.2L453.959 737.63C453.405 738.168 452.966 738.814 452.671 739.527C452.375 740.241 452.228 741.007 452.239 741.78C452.206 742.499 452.325 743.218 452.589 743.888C452.853 744.558 453.255 745.166 453.769 745.67C454.051 745.9 454.405 746.024 454.769 746.02C454.982 746.016 455.188 745.943 455.357 745.814C455.526 745.684 455.649 745.504 455.709 745.3L458.099 738.08C458.315 737.393 458.673 736.759 459.149 736.22C459.471 735.89 459.857 735.631 460.284 735.459C460.711 735.287 461.169 735.205 461.629 735.22C462.104 735.218 462.573 735.313 463.01 735.499C463.447 735.685 463.841 735.957 464.169 736.3C464.888 737.023 465.45 737.886 465.82 738.836C466.19 739.785 466.36 740.801 466.319 741.82C466.325 743.024 466.063 744.215 465.553 745.306C465.043 746.397 464.297 747.362 463.369 748.13C463.274 748.21 463.165 748.271 463.046 748.309C462.928 748.347 462.803 748.361 462.679 748.35C462.525 748.351 462.372 748.322 462.23 748.263C462.087 748.205 461.958 748.119 461.849 748.01C461.74 747.901 461.654 747.772 461.595 747.629C461.537 747.487 461.508 747.334 461.509 747.18C461.501 747.035 461.525 746.89 461.578 746.756C461.632 746.621 461.714 746.5 461.819 746.4L462.259 745.97C462.812 745.431 463.249 744.785 463.543 744.072C463.837 743.358 463.982 742.592 463.969 741.82C464.004 741.101 463.887 740.383 463.625 739.712C463.363 739.042 462.962 738.435 462.449 737.93C462.166 737.701 461.813 737.577 461.449 737.58C461.236 737.584 461.03 737.656 460.861 737.786C460.692 737.915 460.569 738.095 460.509 738.3L458.109 745.52C457.908 746.202 457.567 746.836 457.109 747.38C456.788 747.709 456.401 747.968 455.974 748.141C455.547 748.313 455.089 748.394 454.629 748.38C454.155 748.381 453.685 748.286 453.248 748.101C452.811 747.915 452.417 747.643 452.089 747.3C451.37 746.577 450.808 745.714 450.438 744.764C450.069 743.814 449.898 742.798 449.939 741.78C449.928 740.578 450.183 739.389 450.686 738.298C451.189 737.207 451.928 736.241 452.849 735.47ZM452.299 753.14C453.643 751.791 455.414 750.949 457.309 750.76C459.204 750.57 461.107 751.043 462.692 752.099C464.277 753.155 465.447 754.728 466.002 756.55C466.557 758.372 466.463 760.331 465.736 762.091C465.008 763.851 463.693 765.305 462.014 766.204C460.335 767.103 458.396 767.392 456.528 767.022C454.66 766.651 452.978 765.644 451.769 764.172C450.56 762.7 449.899 760.854 449.899 758.95C449.881 757.869 450.084 756.795 450.497 755.796C450.91 754.797 451.523 753.893 452.299 753.14ZM450.239 804.39C450.079 804.224 449.971 804.016 449.928 803.79C449.885 803.564 449.909 803.33 449.998 803.117C450.086 802.905 450.234 802.723 450.425 802.593C450.615 802.464 450.839 802.393 451.069 802.39H452.359C450.996 801.055 450.139 799.287 449.935 797.39C449.73 795.493 450.192 793.584 451.24 791.99C452.288 790.395 453.857 789.214 455.68 788.649C457.502 788.084 459.465 788.17 461.231 788.892C462.997 789.613 464.458 790.927 465.363 792.606C466.268 794.286 466.561 796.228 466.192 798.1C465.823 799.973 464.816 801.658 463.341 802.87C461.867 804.081 460.017 804.742 458.109 804.74H451.109C450.947 804.747 450.786 804.72 450.636 804.659C450.486 804.599 450.351 804.507 450.239 804.39ZM468.529 808.84L461.529 820.52C461.426 820.713 461.274 820.874 461.087 820.989C460.901 821.103 460.688 821.165 460.469 821.17C460.26 821.157 460.059 821.09 459.883 820.977C459.708 820.863 459.565 820.705 459.469 820.52L452.469 808.84C452.367 808.66 452.315 808.456 452.319 808.25C452.318 808.096 452.349 807.945 452.409 807.803C452.469 807.662 452.558 807.535 452.669 807.43C452.775 807.316 452.904 807.226 453.047 807.166C453.19 807.106 453.344 807.076 453.499 807.08C453.703 807.087 453.902 807.145 454.077 807.25C454.252 807.355 454.397 807.503 454.499 807.68L460.499 817.68L466.499 807.68C466.6 807.502 466.745 807.354 466.921 807.249C467.096 807.144 467.295 807.086 467.499 807.08C467.809 807.082 468.105 807.207 468.323 807.425C468.542 807.644 468.666 807.94 468.669 808.25C468.676 808.455 468.628 808.659 468.529 808.84ZM473.059 785.61C472.951 785.72 472.822 785.807 472.679 785.866C472.536 785.924 472.383 785.953 472.229 785.95H458.109C456.21 785.948 454.371 785.287 452.904 784.082C451.438 782.876 450.434 781.199 450.065 779.337C449.696 777.474 449.984 775.541 450.879 773.867C451.775 772.193 453.223 770.881 454.977 770.154C456.732 769.428 458.683 769.332 460.5 769.883C462.317 770.434 463.887 771.597 464.943 773.176C465.998 774.754 466.474 776.649 466.289 778.539C466.105 780.429 465.27 782.196 463.929 783.54L463.869 783.6H472.229C472.384 783.599 472.537 783.629 472.68 783.689C472.823 783.75 472.952 783.838 473.059 783.95C473.171 784.057 473.26 784.186 473.32 784.328C473.381 784.471 473.411 784.625 473.409 784.78C473.409 784.935 473.378 785.088 473.318 785.23C473.258 785.373 473.17 785.502 473.059 785.61Z" fill="#2E186A"/>
<path d="M728.201 413.19C728.611 400.26 728.411 379.91 723.821 371.02C716.531 356.91 723.331 341.85 738.241 357.26C746.741 366.04 750.911 377.69 752.931 386.08" stroke="#2E186A" stroke-width="6" stroke-linecap="round" stroke-linejoin="round"/>
<path d="M854.101 392.44C868.499 392.44 880.171 380.768 880.171 366.37C880.171 351.972 868.499 340.3 854.101 340.3C839.703 340.3 828.031 351.972 828.031 366.37C828.031 380.768 839.703 392.44 854.101 392.44Z" stroke="#2E186A" stroke-width="6" stroke-linecap="round" stroke-linejoin="round"/>
<path d="M685.24 843.52C761.44 837.83 776.6 579.29 779.24 570.46C784.53 553.02 767.92 548.93 770.1 535.12C772.28 521.31 770.59 515.12 770.59 515.12C734.82 509.3 700.08 464.32 700.08 464.32C700.08 464.32 696.48 466.95 686.23 475.71C675.98 484.47 664.54 471.01 652.84 484.43C645.12 493.38 561 634.6 561 634.6" stroke="#2E186A" stroke-width="6" stroke-linecap="round" stroke-linejoin="round"/>
<path d="M773.19 534.71C775.67 519.84 776.65 513.37 776.65 513.37C738.56 507.51 699.28 459.48 699.28 459.48C699.28 459.48 695.4 462.34 684.38 471.87C679.94 475.71 675.38 475.68 670.6 475.22C667.23 516.93 742.05 554.06 777.49 555.81C775.23 545.79 771.32 546 773.19 534.71Z" fill="#2E186A"/>
<path d="M511.48 610.91C511.48 610.91 556.58 571.99 582.76 596.51" stroke="#2E186A" stroke-width="6" stroke-linecap="round" stroke-linejoin="round"/>
<path d="M684.441 495.72L760.001 539.65L797.821 450.23C834.311 450.29 834.151 430.47 826.511 429.79C818.871 429.11 782.181 434.26 782.181 434.26C782.181 434.26 783.371 431.59 813.181 425.93C842.991 420.27 837.391 403.66 830.981 403.21C824.571 402.76 777.201 414.63 777.201 414.63L817.901 400.1C832.391 395.5 832.901 381.46 825.331 379.48C820.331 378.17 793.671 386.23 772.571 393.61C772.571 393.61 797.931 380.61 809.961 372.75C821.991 364.89 813.581 354.64 806.551 355.28C799.521 355.92 750.681 388.58 741.381 396.67C732.081 404.76 684.441 495.72 684.441 495.72Z" stroke="#2E186A" stroke-width="6" stroke-linecap="round" stroke-linejoin="round"/>
<path d="M635.24 734.65C636.615 734.325 638.012 734.108 639.42 734C643.241 733.722 647.076 734.289 650.653 735.662C654.229 737.034 657.459 739.178 660.113 741.941C662.767 744.704 664.779 748.018 666.007 751.646C667.235 755.275 667.648 759.13 667.216 762.936C666.785 766.743 665.52 770.408 663.511 773.67C661.503 776.932 658.8 779.711 655.595 781.81C652.391 783.909 648.763 785.276 644.97 785.813C641.177 786.351 637.312 786.046 633.65 784.92" stroke="#2E186A" stroke-width="6" stroke-linecap="round" stroke-linejoin="round"/>
<path d="M527.1 724.71V810.52C527.1 818.476 530.26 826.107 535.886 831.733C541.513 837.359 549.143 840.52 557.1 840.52H607.7C615.656 840.52 623.287 837.359 628.913 831.733C634.539 826.107 637.7 818.476 637.7 810.52V724.71H527.1ZM571.84 787.54C572.148 787.718 572.403 787.975 572.579 788.284C572.755 788.593 572.845 788.944 572.84 789.3C572.84 789.83 572.629 790.339 572.254 790.714C571.879 791.089 571.37 791.3 570.84 791.3C570.49 791.305 570.145 791.219 569.84 791.05L549.84 779.05C549.496 778.888 549.206 778.632 549.002 778.312C548.799 777.991 548.69 777.62 548.69 777.24C548.69 776.86 548.799 776.488 549.002 776.168C549.206 775.847 549.496 775.591 549.84 775.43L569.84 763.43C570.145 763.261 570.49 763.174 570.84 763.18C571.104 763.18 571.365 763.232 571.609 763.333C571.852 763.434 572.074 763.583 572.26 763.77C572.451 763.953 572.602 764.174 572.704 764.418C572.805 764.662 572.855 764.925 572.85 765.19C572.855 765.546 572.765 765.896 572.589 766.206C572.413 766.515 572.158 766.772 571.85 766.95L554.64 777.27L571.84 787.54ZM596.84 757.96L580.74 798.21C580.634 798.414 580.495 798.6 580.33 798.76C580.143 798.95 579.921 799.101 579.675 799.204C579.43 799.307 579.166 799.36 578.9 799.36C578.369 799.36 577.86 799.149 577.485 798.774C577.11 798.399 576.9 797.89 576.9 797.36C576.899 797.068 576.957 796.779 577.07 796.51L593.17 756.26C593.281 756.045 593.427 755.849 593.6 755.68C593.783 755.492 594.002 755.344 594.245 755.244C594.487 755.144 594.747 755.095 595.01 755.1C595.54 755.1 596.049 755.311 596.424 755.686C596.799 756.061 597.01 756.569 597.01 757.1C597.018 757.408 596.963 757.714 596.85 758L596.84 757.96ZM624.09 779L604.09 791C603.784 791.169 603.439 791.255 603.09 791.25C602.559 791.25 602.05 791.039 601.675 790.664C601.3 790.289 601.09 789.78 601.09 789.25C601.085 788.894 601.175 788.543 601.351 788.234C601.526 787.925 601.781 787.668 602.09 787.49L619.29 777.18L602.09 766.86C601.781 766.682 601.526 766.425 601.351 766.116C601.175 765.806 601.085 765.456 601.09 765.1C601.084 764.835 601.134 764.572 601.235 764.328C601.337 764.083 601.488 763.863 601.68 763.68C601.866 763.493 602.087 763.344 602.331 763.243C602.574 763.142 602.836 763.09 603.1 763.09C603.449 763.084 603.794 763.171 604.1 763.34L624.1 775.34C624.443 775.501 624.734 775.757 624.937 776.078C625.141 776.398 625.249 776.77 625.249 777.15C625.249 777.53 625.141 777.901 624.937 778.222C624.734 778.542 624.443 778.798 624.1 778.96L624.09 779Z" fill="#2E186A"/>
<path d="M3 843.03H1639.48" stroke="#2E186A" stroke-width="6" stroke-linecap="round" stroke-linejoin="round"/>
<path d="M853.73 417L848.19 331.37L737.82 338.52L741.57 396.46C751.38 388.07 799.57 355.89 806.52 355.26C813.47 354.63 821.96 364.88 809.93 372.73C797.9 380.58 772.54 393.59 772.54 393.59C793.64 386.21 820.33 378.15 825.3 379.46C832.88 381.46 832.36 395.46 817.87 400.08L777.17 414.61C777.17 414.61 824.54 402.74 830.95 403.19C837.36 403.64 842.95 420.25 813.15 425.91C783.35 431.57 782.15 434.24 782.15 434.24C782.15 434.24 818.85 429.08 826.48 429.77C834.11 430.46 834.28 450.27 797.79 450.21L797.58 450.7L825.7 448.88C829.635 448.629 833.481 447.606 837.02 445.868C840.559 444.129 843.72 441.711 846.323 438.75C848.926 435.789 850.92 432.344 852.191 428.612C853.462 424.88 853.985 420.934 853.73 417Z" fill="#2E186A"/>
<path fill-rule="evenodd" clip-rule="evenodd" d="M1158.04 695.6C1158.57 693.455 1157.25 691.289 1155.11 690.762L1109.89 679.661C1107.75 679.135 1105.58 680.447 1105.05 682.592L1101.3 697.872C1100.78 700.017 1102.09 702.183 1104.23 702.71L1126.4 708.152C1128.55 708.679 1129.86 710.845 1129.33 712.991L1123.89 735.158C1123.36 737.303 1124.68 739.47 1126.82 739.996L1142.1 743.748C1144.25 744.274 1146.41 742.962 1146.94 740.817L1158.04 695.6Z" fill="url(#paint0_linear_754_2)"/>
<path d="M1172.59 682.275C1173.67 682.538 1174.32 683.621 1174.06 684.695L1169.47 703.377C1169.04 705.107 1166.74 705.46 1165.81 703.936L1151.72 680.673C1150.8 679.149 1152.18 677.27 1153.91 677.694L1172.59 682.275Z" fill="#EE8761"/>
</g>
<defs>
<linearGradient id="paint0_linear_754_2" x1="1168.76" y1="686.249" x2="1115.99" y2="716.411" gradientUnits="userSpaceOnUse">
<stop offset="0.203669" stop-color="#FF914D"/>
<stop offset="0.842754" stop-color="#763BEC"/>
</linearGradient>
<clipPath id="clip0_754_2">
<rect width="1642.48" height="846.52" fill="white"/>
</clipPath>
</defs>
</svg>
