<?xml version="1.0" encoding="UTF-8"?>
<!DOCTYPE svg PUBLIC "-//W3C//DTD SVG 1.1//EN" "http://www.w3.org/Graphics/SVG/1.1/DTD/svg11.dtd">
<svg xmlns="http://www.w3.org/2000/svg" version="1.1" width="418px" height="280px" style="shape-rendering:geometricPrecision; text-rendering:geometricPrecision; image-rendering:optimizeQuality; fill-rule:evenodd; clip-rule:evenodd" xmlns:xlink="http://www.w3.org/1999/xlink">
<g><path style="opacity:1" fill="#000000" d="M -0.5,-0.5 C 138.833,-0.5 278.167,-0.5 417.5,-0.5C 417.5,12.5 417.5,25.5 417.5,38.5C 278.167,38.5 138.833,38.5 -0.5,38.5C -0.5,25.5 -0.5,12.5 -0.5,-0.5 Z"/></g>
<g><path style="opacity:1" fill="#e9ecfd" d="M -0.5,38.5 C 138.833,38.5 278.167,38.5 417.5,38.5C 417.5,105.5 417.5,172.5 417.5,239.5C 278.167,239.5 138.833,239.5 -0.5,239.5C -0.5,172.5 -0.5,105.5 -0.5,38.5 Z"/></g>
<g><path style="opacity:1" fill="#4b6687" d="M 280.5,97.5 C 292.167,97.5 303.833,97.5 315.5,97.5C 315.5,112.833 315.5,128.167 315.5,143.5C 312.497,144.666 309.83,146.333 307.5,148.5C 306.427,147.749 306.26,146.749 307,145.5C 308.916,144.072 311.083,143.072 313.5,142.5C 314.52,140.568 314.687,138.568 314,136.5C 310.621,139.878 307.121,140.212 303.5,137.5C 304.781,134.553 306.781,132.219 309.5,130.5C 310.308,130.808 310.975,131.308 311.5,132C 309.637,133.418 309.137,135.251 310,137.5C 310.908,135.561 312.408,134.561 314.5,134.5C 312.747,129.26 310.247,124.26 307,119.5C 306.667,122.833 306.333,126.167 306,129.5C 304.519,128.529 303.685,127.196 303.5,125.5C 303.551,123.43 302.885,121.597 301.5,120C 301.645,119.228 301.978,118.561 302.5,118C 300.744,117.798 299.078,117.298 297.5,116.5C 298.981,115.52 300.315,114.353 301.5,113C 297.266,114.076 296.433,112.576 299,108.5C 300.418,110.363 302.251,110.863 304.5,110C 303.366,108.984 303.699,108.317 305.5,108C 304.833,107.667 304.167,107.333 303.5,107C 307.945,107.542 310.112,105.709 310,101.5C 309,103.167 307.667,104.5 306,105.5C 305.667,104.833 305.333,104.167 305,103.5C 302.88,106.386 300.713,106.719 298.5,104.5C 296.944,105.547 295.277,106.214 293.5,106.5C 293.472,108.582 294.139,110.416 295.5,112C 294.667,112.833 293.833,113.667 293,114.5C 292.667,111.167 292.333,107.833 292,104.5C 289.432,105.38 288.932,106.88 290.5,109C 289.764,111.139 288.764,113.139 287.5,115C 288.5,115.833 289.5,116.667 290.5,117.5C 288.686,117.445 286.686,117.779 284.5,118.5C 281.435,118.382 280.935,117.382 283,115.5C 283.893,116.711 284.726,116.711 285.5,115.5C 284.985,113.775 284.318,112.108 283.5,110.5C 280.506,111.748 277.506,111.748 274.5,110.5C 277.93,108.634 281.597,107.468 285.5,107C 283.26,106.023 280.927,105.523 278.5,105.5C 278.657,104.127 278.49,102.793 278,101.5C 276.796,102.471 276.296,103.471 276.5,104.5C 275.167,103.5 273.833,102.5 272.5,101.5C 274.991,99.5877 277.658,98.2544 280.5,97.5 Z"/></g>
<g><path style="opacity:1" fill="#daddef" d="M 315.5,97.5 C 303.833,97.5 292.167,97.5 280.5,97.5C 278.167,97.5 275.833,97.5 273.5,97.5C 272.167,97.5 270.833,97.5 269.5,97.5C 259.111,96.859 249.111,97.5257 239.5,99.5C 238.25,99.5774 237.417,100.244 237,101.5C 236.333,138.167 236.333,174.833 237,211.5C 261.428,212.661 285.928,212.827 310.5,212C 311.056,211.617 311.389,211.117 311.5,210.5C 312.833,210.5 314.167,210.5 315.5,210.5C 314.375,212.129 313.041,213.629 311.5,215C 285.827,215.833 260.16,215.666 234.5,214.5C 233.883,209.701 233.216,205.034 232.5,200.5C 232.5,200.167 232.5,199.833 232.5,199.5C 233.498,169.338 233.831,139.005 233.5,108.5C 212.993,108.17 192.66,108.503 172.5,109.5C 172.5,109.833 172.5,110.167 172.5,110.5C 171.85,110.804 171.183,111.137 170.5,111.5C 169.5,141.159 169.167,170.826 169.5,200.5C 168.167,185.849 167.501,170.849 167.5,155.5C 167.667,140.5 167.833,125.5 168,110.5C 168.833,109.667 169.667,108.833 170.5,108C 191.497,107.5 212.497,107.333 233.5,107.5C 233.351,104.393 233.851,101.393 235,98.5C 235.75,97.8742 236.584,97.3742 237.5,97C 263.67,96.1699 289.67,96.3365 315.5,97.5 Z"/></g>
<g><path style="opacity:1" fill="#3f5475" d="M 269.5,97.5 C 266.215,101.634 261.882,103.301 256.5,102.5C 256.33,103.822 256.663,104.989 257.5,106C 259.441,107.903 261.774,108.736 264.5,108.5C 264.714,106.856 264.38,105.356 263.5,104C 265.167,103.667 266.833,103.333 268.5,103C 269.692,100.645 271.359,98.8118 273.5,97.5C 275.833,97.5 278.167,97.5 280.5,97.5C 277.658,98.2544 274.991,99.5877 272.5,101.5C 273.833,102.5 275.167,103.5 276.5,104.5C 276.296,103.471 276.796,102.471 278,101.5C 278.49,102.793 278.657,104.127 278.5,105.5C 280.927,105.523 283.26,106.023 285.5,107C 281.597,107.468 277.93,108.634 274.5,110.5C 277.506,111.748 280.506,111.748 283.5,110.5C 284.318,112.108 284.985,113.775 285.5,115.5C 284.726,116.711 283.893,116.711 283,115.5C 280.935,117.382 281.435,118.382 284.5,118.5C 286.686,117.779 288.686,117.445 290.5,117.5C 289.5,116.667 288.5,115.833 287.5,115C 288.764,113.139 289.764,111.139 290.5,109C 288.932,106.88 289.432,105.38 292,104.5C 292.333,107.833 292.667,111.167 293,114.5C 293.833,113.667 294.667,112.833 295.5,112C 294.139,110.416 293.472,108.582 293.5,106.5C 295.277,106.214 296.944,105.547 298.5,104.5C 300.713,106.719 302.88,106.386 305,103.5C 305.333,104.167 305.667,104.833 306,105.5C 307.667,104.5 309,103.167 310,101.5C 310.112,105.709 307.945,107.542 303.5,107C 304.167,107.333 304.833,107.667 305.5,108C 303.699,108.317 303.366,108.984 304.5,110C 302.251,110.863 300.418,110.363 299,108.5C 296.433,112.576 297.266,114.076 301.5,113C 300.315,114.353 298.981,115.52 297.5,116.5C 299.078,117.298 300.744,117.798 302.5,118C 301.978,118.561 301.645,119.228 301.5,120C 302.885,121.597 303.551,123.43 303.5,125.5C 301.863,123.684 300.363,121.684 299,119.5C 297.676,120.88 296.343,121.214 295,120.5C 294.333,123.167 293.667,123.167 293,120.5C 292.333,121.833 291.667,123.167 291,124.5C 290.477,122.777 289.477,121.444 288,120.5C 283.664,120.276 279.331,120.276 275,120.5C 274.717,117.258 273.883,116.924 272.5,119.5C 269.823,118.926 267.157,118.259 264.5,117.5C 264.81,115.799 264.31,114.132 263,112.5C 262.667,113.167 262.333,113.833 262,114.5C 261.558,112.321 260.558,111.655 259,112.5C 257.883,111.051 257.216,109.384 257,107.5C 256.667,107.833 256.333,108.167 256,108.5C 252.404,105.359 248.071,102.692 243,100.5C 242.5,114.829 242.333,129.163 242.5,143.5C 240.688,152.011 240.021,160.678 240.5,169.5C 240.5,169.833 240.5,170.167 240.5,170.5C 240.5,183.833 240.5,197.167 240.5,210.5C 239.502,173.67 239.168,136.67 239.5,99.5C 249.111,97.5257 259.111,96.859 269.5,97.5 Z"/></g>
<g><path style="opacity:1" fill="#526f8f" d="M 269.5,97.5 C 270.833,97.5 272.167,97.5 273.5,97.5C 271.359,98.8118 269.692,100.645 268.5,103C 266.833,103.333 265.167,103.667 263.5,104C 264.38,105.356 264.714,106.856 264.5,108.5C 261.774,108.736 259.441,107.903 257.5,106C 256.663,104.989 256.33,103.822 256.5,102.5C 261.882,103.301 266.215,101.634 269.5,97.5 Z"/></g>
<g><path style="opacity:1" fill="#8c93af" d="M 73.5,117.5 C 71.665,116.878 70.4983,115.544 70,113.5C 69.4209,114.928 69.5876,116.262 70.5,117.5C 69.8333,118.167 69.1667,118.833 68.5,119.5C 68.1667,118.833 67.8333,118.167 67.5,117.5C 68.4511,116.081 68.7845,114.415 68.5,112.5C 70.924,112.192 73.2573,112.526 75.5,113.5C 75.0057,115.026 74.339,116.359 73.5,117.5 Z"/></g>
<g><path style="opacity:1" fill="#a7acb9" d="M 172.5,110.5 C 172.5,117.5 172.5,124.5 172.5,131.5C 172.5,154.167 172.5,176.833 172.5,199.5C 180.167,199.5 187.833,199.5 195.5,199.5C 207.833,199.5 220.167,199.5 232.5,199.5C 232.5,199.833 232.5,200.167 232.5,200.5C 211.5,201.833 190.5,201.833 169.5,200.5C 169.167,170.826 169.5,141.159 170.5,111.5C 171.183,111.137 171.85,110.804 172.5,110.5 Z"/></g>
<g><path style="opacity:1" fill="#354267" d="M 56.5,112.5 C 62.6426,113.026 63.9759,115.86 60.5,121C 55.5036,121.664 53.6703,119.498 55,114.5C 55.7172,113.956 56.2172,113.289 56.5,112.5 Z"/></g>
<g><path style="opacity:1" fill="#354267" d="M 67.5,117.5 C 67.8333,118.167 68.1667,118.833 68.5,119.5C 67.8106,120.774 66.9772,120.774 66,119.5C 65.7674,117.22 64.934,115.22 63.5,113.5C 64.723,112.386 66.0563,112.219 67.5,113C 66.2721,114.49 66.2721,115.99 67.5,117.5 Z"/></g>
<g><path style="opacity:1" fill="#dde0f1" d="M 57.5,113.5 C 58.4959,113.414 59.3292,113.748 60,114.5C 60.4935,116.134 60.6602,117.801 60.5,119.5C 59.1667,119.5 57.8333,119.5 56.5,119.5C 56.3253,117.379 56.6586,115.379 57.5,113.5 Z"/></g>
<g><path style="opacity:1" fill="#9ca3bc" d="M 77.5,113.5 C 79.2646,112.539 81.2646,112.205 83.5,112.5C 83.5,114.167 83.5,115.833 83.5,117.5C 80.809,117.067 78.809,115.733 77.5,113.5 Z"/></g>
<g><path style="opacity:1" fill="#3b476b" d="M 87.5,112.5 C 90.9496,111.756 92.6162,113.09 92.5,116.5C 90.8333,116.5 89.1667,116.5 87.5,116.5C 87.5,117.5 87.5,118.5 87.5,119.5C 89.4458,119.193 91.1125,119.193 92.5,119.5C 90.4232,122.119 88.2565,122.119 86,119.5C 85.1668,116.829 85.6668,114.496 87.5,112.5 Z"/></g>
<g><path style="opacity:1" fill="#d5d8eb" d="M 88.5,113.5 C 89.3764,113.369 90.0431,113.702 90.5,114.5C 88.1916,115.873 87.5249,115.54 88.5,113.5 Z"/></g>
<g><path style="opacity:1" fill="#848ca8" d="M 100.5,110.5 C 103.676,108.727 105.343,109.727 105.5,113.5C 106.675,113.281 107.675,113.614 108.5,114.5C 109.053,116.384 109.053,118.384 108.5,120.5C 104.956,117.869 102.29,114.536 100.5,110.5 Z"/></g>
<g><path style="opacity:1" fill="#2e385f" d="M 73.5,117.5 C 72.7542,121.31 71.7542,121.31 70.5,117.5C 69.5876,116.262 69.4209,114.928 70,113.5C 70.4983,115.544 71.665,116.878 73.5,117.5 Z"/></g>
<g><path style="opacity:1" fill="#1c5e66" d="M 172.5,109.5 C 178.833,109.5 185.167,109.5 191.5,109.5C 189.882,110.451 188.549,111.784 187.5,113.5C 188.664,113.165 189.997,113.165 191.5,113.5C 189.684,114.815 188.017,116.315 186.5,118C 187.833,118.333 189.167,118.667 190.5,119C 191.155,120.487 192.155,121.653 193.5,122.5C 199.651,118.551 205.818,118.551 212,122.5C 213.37,120.797 215.036,119.464 217,118.5C 218.879,120.013 221.046,120.679 223.5,120.5C 225.058,125.341 226.725,130.174 228.5,135C 226.185,136.986 224.852,139.486 224.5,142.5C 225.822,142.33 226.989,142.663 228,143.5C 228.822,151.012 228.655,158.345 227.5,165.5C 227.342,161.788 227.342,158.288 227.5,155C 225.075,154.707 223.242,153.541 222,151.5C 221.069,153.459 220.236,155.459 219.5,157.5C 214.667,157.833 209.833,158.167 205,158.5C 199.75,158.47 194.75,157.804 190,156.5C 189.667,157.167 189.333,157.833 189,158.5C 188.5,157.333 187.667,156.5 186.5,156C 189.167,155.667 191.833,155.333 194.5,155C 192.655,153.872 190.655,153.372 188.5,153.5C 188.5,152.5 188.5,151.5 188.5,150.5C 186.876,150.36 185.71,151.027 185,152.5C 184.517,151.552 184.351,150.552 184.5,149.5C 187.5,149.5 190.5,149.5 193.5,149.5C 193.833,153.5 194.167,153.5 194.5,149.5C 197.518,149.335 200.518,149.502 203.5,150C 201.726,150.881 201.06,152.047 201.5,153.5C 200.575,152.359 199.741,152.359 199,153.5C 197.619,149.812 196.452,150.145 195.5,154.5C 201.807,155.664 208.141,155.831 214.5,155C 211.568,154.047 208.568,153.547 205.5,153.5C 205.67,152.178 205.337,151.011 204.5,150C 207.063,149.082 209.23,149.582 211,151.5C 211.318,149.939 212.151,148.772 213.5,148C 207.549,146.968 201.549,146.135 195.5,145.5C 197.432,142.701 200.098,141.201 203.5,141C 199.807,138.627 196.141,136.294 192.5,134C 190.4,129.726 188.067,125.559 185.5,121.5C 184.311,120.571 182.978,120.238 181.5,120.5C 179.588,125.015 177.921,129.682 176.5,134.5C 178.584,136.845 179.917,139.511 180.5,142.5C 179.178,142.33 178.011,142.663 177,143.5C 176.178,151.012 176.345,158.345 177.5,165.5C 178.895,166.648 178.728,167.648 177,168.5C 176.667,167.833 176.333,167.167 176,166.5C 175.667,156.833 175.333,147.167 175,137.5C 174.667,141.167 174.333,144.833 174,148.5C 173.827,142.652 173.327,136.985 172.5,131.5C 172.5,124.5 172.5,117.5 172.5,110.5C 172.5,110.167 172.5,109.833 172.5,109.5 Z"/></g>
<g><path style="opacity:1" fill="#576082" d="M 34.5,109.5 C 38.0071,108.994 41.1737,109.66 44,111.5C 44.2468,114.395 44.0802,117.395 43.5,120.5C 40.5063,121.748 37.5063,121.748 34.5,120.5C 35.7506,116.836 35.7506,113.169 34.5,109.5 Z"/></g>
<g><path style="opacity:1" fill="#e8ebfb" d="M 38.5,116.5 C 39.8333,116.5 41.1667,116.5 42.5,116.5C 42.5,117.5 42.5,118.5 42.5,119.5C 41.1667,119.5 39.8333,119.5 38.5,119.5C 38.5,118.5 38.5,117.5 38.5,116.5 Z"/></g>
<g><path style="opacity:1" fill="#d9ddef" d="M 38.5,111.5 C 39.8333,111.5 41.1667,111.5 42.5,111.5C 42.5,112.5 42.5,113.5 42.5,114.5C 41.1667,114.5 39.8333,114.5 38.5,114.5C 38.5,113.5 38.5,112.5 38.5,111.5 Z"/></g>
<g><path style="opacity:1" fill="#3d486c" d="M 100.5,110.5 C 102.29,114.536 104.956,117.869 108.5,120.5C 107.022,120.762 105.689,120.429 104.5,119.5C 103.52,118.019 102.353,116.685 101,115.5C 99.049,117.137 99.2157,118.637 101.5,120C 100.906,120.464 100.239,120.631 99.5,120.5C 98.3054,120.134 97.6387,119.301 97.5,118C 98.811,115.538 99.811,113.038 100.5,110.5 Z"/></g>
<g><path style="opacity:1" fill="#979db7" d="M 108.5,120.5 C 105.5,121.833 102.5,121.833 99.5,120.5C 100.239,120.631 100.906,120.464 101.5,120C 99.2157,118.637 99.049,117.137 101,115.5C 102.353,116.685 103.52,118.019 104.5,119.5C 105.689,120.429 107.022,120.762 108.5,120.5 Z"/></g>
<g><path style="opacity:1" fill="#6f7697" d="M 45.5,112.5 C 48.1194,112.232 50.6194,112.565 53,113.5C 52.9189,115.638 51.9189,115.971 50,114.5C 49.2214,116.807 49.7214,118.807 51.5,120.5C 49.5,121.833 47.5,121.833 45.5,120.5C 46.7026,117.84 46.7026,115.173 45.5,112.5 Z"/></g>
<g><path style="opacity:1" fill="#555f81" d="M 77.5,113.5 C 78.809,115.733 80.809,117.067 83.5,117.5C 82.6326,122.12 80.2992,122.786 76.5,119.5C 76.8333,119.167 77.1667,118.833 77.5,118.5C 82.8375,119.13 82.8375,118.464 77.5,116.5C 76.2241,115.386 76.2241,114.386 77.5,113.5 Z"/></g>
<g><path style="opacity:1" fill="#293d60" d="M 269.5,142.5 C 267.846,144.56 266.846,147.06 266.5,150C 267.577,150.47 268.577,150.303 269.5,149.5C 270.492,149.672 271.158,149.338 271.5,148.5C 271.56,147.957 271.893,147.624 272.5,147.5C 273.249,149.012 274.416,150.012 276,150.5C 279.12,149.915 281.787,148.581 284,146.5C 284.748,148.751 286.248,150.084 288.5,150.5C 290.023,148.49 291.856,148.156 294,149.5C 295.341,146.813 297.007,145.147 299,144.5C 300.419,145.46 301.919,146.293 303.5,147C 302.346,147.914 302.513,148.747 304,149.5C 304.626,147.009 305.459,147.009 306.5,149.5C 307.107,149.376 307.44,149.043 307.5,148.5C 309.83,146.333 312.497,144.666 315.5,143.5C 315.5,165.833 315.5,188.167 315.5,210.5C 314.167,210.5 312.833,210.5 311.5,210.5C 287.917,210.235 264.25,210.235 240.5,210.5C 240.5,197.167 240.5,183.833 240.5,170.5C 242.963,169.767 245.297,168.767 247.5,167.5C 249.33,167.776 250.997,168.443 252.5,169.5C 251.221,172.112 249.555,174.445 247.5,176.5C 246.351,179.478 246.351,182.478 247.5,185.5C 247.081,186.672 246.415,187.672 245.5,188.5C 246.289,190.488 247.455,190.821 249,189.5C 249.333,187.5 249.667,185.5 250,183.5C 250.654,184.696 251.154,184.696 251.5,183.5C 249.816,182.146 249.316,180.479 250,178.5C 252.046,180.7 253.046,183.367 253,186.5C 254.423,188.504 256.256,190.004 258.5,191C 257.069,191.465 255.903,192.299 255,193.5C 254.009,192.061 252.676,191.061 251,190.5C 251.423,192.876 250.589,195.043 248.5,197C 249.967,199.186 251.967,199.852 254.5,199C 255.833,198.333 255.833,197.667 254.5,197C 253.167,196.667 251.833,196.333 250.5,196C 253.119,195.816 255.619,194.983 258,193.5C 257.764,196.646 256.931,199.646 255.5,202.5C 257.124,202.36 258.29,203.027 259,204.5C 259.667,203.167 260.333,201.833 261,200.5C 261.333,201.167 261.667,201.833 262,202.5C 262.537,199.813 262.037,197.313 260.5,195C 261.025,194.308 261.692,193.808 262.5,193.5C 262.716,204.629 265.049,205.295 269.5,195.5C 268.5,195.5 267.5,195.5 266.5,195.5C 267.015,193.775 267.682,192.108 268.5,190.5C 270.071,192.882 270.904,195.549 271,198.5C 273.709,195.632 276.876,194.965 280.5,196.5C 277.693,198.446 274.693,199.946 271.5,201C 274.133,201.423 276.299,202.59 278,204.5C 279.049,202.893 280.549,202.227 282.5,202.5C 282.015,206.481 279.681,208.648 275.5,209C 278.868,209.543 282.201,209.376 285.5,208.5C 285.78,204.887 287.78,202.887 291.5,202.5C 289.973,200.67 290.473,199.67 293,199.5C 296.515,199.484 298.349,201.15 298.5,204.5C 293.5,205.003 293.833,205.336 299.5,205.5C 299.5,206.5 299.5,207.5 299.5,208.5C 304.695,208.821 309.695,208.487 314.5,207.5C 314.667,192.163 314.5,176.83 314,161.5C 313.5,176.163 313.333,190.83 313.5,205.5C 310.15,205.665 306.817,205.498 303.5,205C 306.146,204.503 308.813,204.336 311.5,204.5C 311.831,196.14 311.498,187.807 310.5,179.5C 308.405,181.589 306.572,181.589 305,179.5C 300.667,179.833 296.333,180.167 292,180.5C 290.092,177.668 289.259,178.001 289.5,181.5C 282.152,181.449 274.818,181.283 267.5,181C 266.185,179.605 266.519,178.605 268.5,178C 264.459,177.827 260.459,177.327 256.5,176.5C 258.975,176.036 260.975,175.036 262.5,173.5C 261.108,171.727 259.941,169.727 259,167.5C 258,167.833 257,168.167 256,168.5C 254.68,166.183 253.014,164.183 251,162.5C 248.219,163.555 245.052,164.221 241.5,164.5C 241.784,166.415 241.451,168.081 240.5,169.5C 240.021,160.678 240.688,152.011 242.5,143.5C 243.954,142.48 244.287,141.313 243.5,140C 244.317,133.77 245.317,127.27 246.5,120.5C 249.425,124.774 252.258,129.107 255,133.5C 256,133.167 257,132.833 258,132.5C 258.684,134.359 259.684,136.026 261,137.5C 261.914,136.346 262.747,136.513 263.5,138C 262.66,139.666 263.16,139.833 265,138.5C 265.907,140.609 267.407,141.942 269.5,142.5 Z"/></g>
<g><path style="opacity:1" fill="#8eaaba" d="M 172.5,109.5 C 192.66,108.503 212.993,108.17 233.5,108.5C 233.831,139.005 233.498,169.338 232.5,199.5C 232.5,176.5 232.5,153.5 232.5,130.5C 232.5,123.5 232.5,116.5 232.5,109.5C 218.833,109.5 205.167,109.5 191.5,109.5C 185.167,109.5 178.833,109.5 172.5,109.5 Z"/></g>
<g><path style="opacity:1" fill="#2c3c61" d="M 54.5,130.5 C 55.5,130.5 56.5,130.5 57.5,130.5C 57.1368,145.059 56.1368,145.059 54.5,130.5 Z"/></g>
<g><path style="opacity:1" fill="#29385c" d="M 92.5,132.5 C 92.5,133.5 92.5,134.5 92.5,135.5C 93.675,135.281 94.675,135.614 95.5,136.5C 95.0623,137.506 94.3957,137.506 93.5,136.5C 92.5713,137.689 92.238,139.022 92.5,140.5C 94.1667,140.5 95.8333,140.5 97.5,140.5C 98.0447,136.828 98.3781,137.162 98.5,141.5C 95.8333,141.5 93.1667,141.5 90.5,141.5C 90.1796,138.102 90.513,134.768 91.5,131.5C 92.1067,131.624 92.44,131.957 92.5,132.5 Z"/></g>
<g><path style="opacity:1" fill="#424d71" d="M 107.5,131.5 C 110.304,130.362 113.304,130.195 116.5,131C 116.114,134.345 116.614,137.511 118,140.5C 114.927,141.617 111.76,141.784 108.5,141C 109.61,138.263 109.777,135.429 109,132.5C 108.617,131.944 108.117,131.611 107.5,131.5 Z"/></g>
<g><path style="opacity:1" fill="#314569" d="M 303.5,125.5 C 303.685,127.196 304.519,128.529 306,129.5C 306.333,126.167 306.667,122.833 307,119.5C 310.247,124.26 312.747,129.26 314.5,134.5C 312.408,134.561 310.908,135.561 310,137.5C 309.137,135.251 309.637,133.418 311.5,132C 310.975,131.308 310.308,130.808 309.5,130.5C 306.781,132.219 304.781,134.553 303.5,137.5C 307.121,140.212 310.621,139.878 314,136.5C 314.687,138.568 314.52,140.568 313.5,142.5C 311.083,143.072 308.916,144.072 307,145.5C 306.26,146.749 306.427,147.749 307.5,148.5C 307.44,149.043 307.107,149.376 306.5,149.5C 305.459,147.009 304.626,147.009 304,149.5C 302.513,148.747 302.346,147.914 303.5,147C 301.919,146.293 300.419,145.46 299,144.5C 297.007,145.147 295.341,146.813 294,149.5C 291.856,148.156 290.023,148.49 288.5,150.5C 286.148,148.171 285.315,145.505 286,142.5C 284.684,145.028 283.517,145.028 282.5,142.5C 282.302,145.785 280.635,147.452 277.5,147.5C 277.238,146.022 277.571,144.689 278.5,143.5C 279.396,144.506 280.062,144.506 280.5,143.5C 278.276,142.22 276.276,142.553 274.5,144.5C 273.522,144.023 272.689,143.357 272,142.5C 271.654,144.218 271.154,145.885 270.5,147.5C 270.624,148.107 270.957,148.44 271.5,148.5C 271.158,149.338 270.492,149.672 269.5,149.5C 269.5,147.167 269.5,144.833 269.5,142.5C 267.407,141.942 265.907,140.609 265,138.5C 263.16,139.833 262.66,139.666 263.5,138C 262.747,136.513 261.914,136.346 261,137.5C 259.684,136.026 258.684,134.359 258,132.5C 257,132.833 256,133.167 255,133.5C 252.258,129.107 249.425,124.774 246.5,120.5C 245.317,127.27 244.317,133.77 243.5,140C 244.287,141.313 243.954,142.48 242.5,143.5C 242.333,129.163 242.5,114.829 243,100.5C 248.071,102.692 252.404,105.359 256,108.5C 256.333,108.167 256.667,107.833 257,107.5C 257.216,109.384 257.883,111.051 259,112.5C 260.558,111.655 261.558,112.321 262,114.5C 262.333,113.833 262.667,113.167 263,112.5C 264.31,114.132 264.81,115.799 264.5,117.5C 267.157,118.259 269.823,118.926 272.5,119.5C 273.883,116.924 274.717,117.258 275,120.5C 279.331,120.276 283.664,120.276 288,120.5C 289.477,121.444 290.477,122.777 291,124.5C 291.667,123.167 292.333,121.833 293,120.5C 293.667,123.167 294.333,123.167 295,120.5C 296.343,121.214 297.676,120.88 299,119.5C 300.363,121.684 301.863,123.684 303.5,125.5 Z"/></g>
<g><path style="opacity:1" fill="#8991a4" d="M 286.5,126.5 C 287.376,126.369 288.043,126.702 288.5,127.5C 290.097,129.906 290.764,132.239 290.5,134.5C 289.667,133.5 288.833,132.5 288,131.5C 286.234,135.378 284.401,135.378 282.5,131.5C 280.233,135.307 278.066,135.307 276,131.5C 274.951,133.107 273.451,133.773 271.5,133.5C 271.66,131.801 271.494,130.134 271,128.5C 270.418,132.251 268.251,133.918 264.5,133.5C 264.5,131.5 264.5,129.5 264.5,127.5C 267.5,127.5 270.5,127.5 273.5,127.5C 273.497,132.592 274.33,132.592 276,127.5C 277.252,129.001 278.252,130.668 279,132.5C 278.786,127.103 280.119,126.436 283,130.5C 284.377,126.735 285.377,127.068 286,131.5C 286.494,129.866 286.66,128.199 286.5,126.5 Z"/></g>
<g><path style="opacity:1" fill="#495276" d="M 79.5,131.5 C 81.0843,132.382 82.751,133.215 84.5,134C 83.552,134.483 82.552,134.649 81.5,134.5C 81.3379,136.527 81.5045,138.527 82,140.5C 82.6543,139.304 83.1543,139.304 83.5,140.5C 82.3112,141.429 80.9778,141.762 79.5,141.5C 79.9577,138.606 79.291,136.106 77.5,134C 78.756,133.583 79.4226,132.75 79.5,131.5 Z"/></g>
<g><path style="opacity:1" fill="#dfe3f4" d="M 111.5,132.5 C 112.833,132.5 114.167,132.5 115.5,132.5C 115.5,133.5 115.5,134.5 115.5,135.5C 114.167,135.5 112.833,135.5 111.5,135.5C 111.5,134.5 111.5,133.5 111.5,132.5 Z"/></g>
<g><path style="opacity:1" fill="#303b61" d="M 43.5,140.5 C 42.8333,139.833 42.1667,139.167 41.5,138.5C 39.6115,137.678 37.6115,136.845 35.5,136C 34.3503,131.814 36.017,130.148 40.5,131C 38.7139,131.196 37.3805,132.029 36.5,133.5C 38.0588,135.131 40.0588,135.964 42.5,136C 43.3802,137.356 43.7135,138.856 43.5,140.5 Z"/></g>
<g><path style="opacity:1" fill="#3b476c" d="M 131.5,133.5 C 137.313,133.062 138.98,135.562 136.5,141C 135.833,141.667 135.167,141.667 134.5,141C 136.028,138.482 135.694,136.315 133.5,134.5C 131.306,136.315 130.972,138.482 132.5,141C 131.551,141.617 130.718,141.451 130,140.5C 129.167,137.829 129.667,135.496 131.5,133.5 Z"/></g>
<g><path style="opacity:1" fill="#a1a7c0" d="M 153.5,133.5 C 154.5,133.5 155.5,133.5 156.5,133.5C 156.5,135.167 156.5,136.833 156.5,138.5C 154.97,137.933 153.47,137.267 152,136.5C 151.761,135.212 152.261,134.212 153.5,133.5 Z"/></g>
<g><path style="opacity:1" fill="#374468" d="M 47.5,133.5 C 49.7224,133.178 51.5557,133.845 53,135.5C 53.6877,136.332 53.521,136.998 52.5,137.5C 50.5294,133.638 48.8627,133.638 47.5,137.5C 48.6345,141.039 50.4679,141.372 53,138.5C 53.6172,139.449 53.4506,140.282 52.5,141C 45.6829,141.861 44.0163,139.361 47.5,133.5 Z"/></g>
<g><path style="opacity:1" fill="#666f90" d="M 101.5,136.5 C 103.288,136.215 104.955,136.548 106.5,137.5C 105.667,137.833 104.833,138.167 104,138.5C 102.624,138.316 101.791,137.649 101.5,136.5 Z"/></g>
<g><path style="opacity:1" fill="#3c466c" d="M 139.5,130.5 C 140.5,130.5 141.5,130.5 142.5,130.5C 142.338,132.527 142.505,134.527 143,136.5C 146.673,132.496 147.507,132.663 145.5,137C 148.267,142.116 147.6,142.616 143.5,138.5C 142.614,139.325 142.281,140.325 142.5,141.5C 141.448,141.649 140.448,141.483 139.5,141C 140.717,137.534 140.717,134.034 139.5,130.5 Z"/></g>
<g><path style="opacity:1" fill="#2f3b61" d="M 61.5,133.5 C 63.7224,133.178 65.5557,133.845 67,135.5C 67.6877,136.332 67.521,136.998 66.5,137.5C 64.5294,133.638 62.8627,133.638 61.5,137.5C 62.6345,141.039 64.4679,141.372 67,138.5C 67.6172,139.449 67.4506,140.282 66.5,141C 59.745,141.756 58.0783,139.256 61.5,133.5 Z"/></g>
<g><path style="opacity:1" fill="#424e71" d="M 153.5,133.5 C 152.261,134.212 151.761,135.212 152,136.5C 153.47,137.267 154.97,137.933 156.5,138.5C 155.633,143.12 153.299,143.786 149.5,140.5C 151.117,140.331 152.784,139.997 154.5,139.5C 152.483,138.781 150.817,137.614 149.5,136C 150.032,133.98 151.365,133.147 153.5,133.5 Z"/></g>
<g><path style="opacity:1" fill="#404a6e" d="M 70.5,133.5 C 72.1992,133.34 73.8659,133.506 75.5,134C 76.7112,134.893 76.7112,135.726 75.5,136.5C 74.4763,135.147 73.143,134.48 71.5,134.5C 71.5,136.5 71.5,138.5 71.5,140.5C 73.3904,140.703 74.8904,140.037 76,138.5C 76.0217,141.47 74.5217,142.636 71.5,142C 67.9861,139.468 67.6528,136.635 70.5,133.5 Z"/></g>
<g><path style="opacity:1" fill="#d8ddef" d="M 111.5,136.5 C 112.833,136.5 114.167,136.5 115.5,136.5C 115.5,137.833 115.5,139.167 115.5,140.5C 114.167,140.5 112.833,140.5 111.5,140.5C 111.5,139.167 111.5,137.833 111.5,136.5 Z"/></g>
<g><path style="opacity:1" fill="#276e75" d="M 191.5,109.5 C 205.167,109.5 218.833,109.5 232.5,109.5C 232.5,116.5 232.5,123.5 232.5,130.5C 231.668,147.662 231.168,164.995 231,182.5C 230.667,174.167 230.333,165.833 230,157.5C 229.827,162.584 229.161,167.584 228,172.5C 223.547,170.345 223.38,168.012 227.5,165.5C 228.655,158.345 228.822,151.012 228,143.5C 226.989,142.663 225.822,142.33 224.5,142.5C 224.852,139.486 226.185,136.986 228.5,135C 226.725,130.174 225.058,125.341 223.5,120.5C 221.046,120.679 218.879,120.013 217,118.5C 215.036,119.464 213.37,120.797 212,122.5C 205.818,118.551 199.651,118.551 193.5,122.5C 192.155,121.653 191.155,120.487 190.5,119C 189.167,118.667 187.833,118.333 186.5,118C 188.017,116.315 189.684,114.815 191.5,113.5C 189.997,113.165 188.664,113.165 187.5,113.5C 188.549,111.784 189.882,110.451 191.5,109.5 Z"/></g>
<g><path style="opacity:1" fill="#394569" d="M 121.5,133.5 C 126.501,132.671 128.668,134.671 128,139.5C 127.311,140.357 126.478,141.023 125.5,141.5C 125.295,139.448 125.295,137.114 125.5,134.5C 124.178,134.33 123.011,134.663 122,135.5C 121.922,137.657 121.755,139.657 121.5,141.5C 118.848,138.799 118.848,136.132 121.5,133.5 Z"/></g>
<g><path style="opacity:1" fill="#747d9c" d="M 41.5,138.5 C 42.1667,139.167 42.8333,139.833 43.5,140.5C 43.0377,141.88 42.0377,142.547 40.5,142.5C 38.5466,141.844 36.5466,141.511 34.5,141.5C 34.238,140.022 34.5713,138.689 35.5,137.5C 37.3399,140.811 39.3399,141.144 41.5,138.5 Z"/></g>
<g><path style="opacity:1" fill="#8a92ae" d="M 92.5,132.5 C 92.44,131.957 92.1067,131.624 91.5,131.5C 90.513,134.768 90.1796,138.102 90.5,141.5C 93.1667,141.5 95.8333,141.5 98.5,141.5C 95.3132,142.806 91.9798,142.806 88.5,141.5C 89.4259,137.906 89.7592,134.24 89.5,130.5C 92.5,130.5 95.5,130.5 98.5,130.5C 98.6567,131.873 98.49,133.207 98,134.5C 96.5993,132.808 94.7659,132.141 92.5,132.5 Z"/></g>
<g><path style="opacity:1" fill="#0f525b" d="M 227.5,165.5 C 223.38,168.012 223.547,170.345 228,172.5C 229.161,167.584 229.827,162.584 230,157.5C 230.333,165.833 230.667,174.167 231,182.5C 231.168,164.995 231.668,147.662 232.5,130.5C 232.5,153.5 232.5,176.5 232.5,199.5C 220.167,199.5 207.833,199.5 195.5,199.5C 196.476,198.185 197.476,196.852 198.5,195.5C 199.386,196.325 199.719,197.325 199.5,198.5C 201.833,198.5 204.167,198.5 206.5,198.5C 206.351,197.448 206.517,196.448 207,195.5C 208.312,197.658 209.978,197.991 212,196.5C 212.684,195.216 212.517,194.049 211.5,193C 205.823,191.108 200.157,191.108 194.5,193C 193.667,193.833 192.833,194.667 192,195.5C 189.734,194.044 187.234,193.21 184.5,193C 185.167,192.667 185.833,192.333 186.5,192C 185.167,191.333 183.833,190.667 182.5,190C 184.527,189.502 186.527,189.669 188.5,190.5C 190.347,189.814 192.014,188.814 193.5,187.5C 198.668,189.286 204.002,189.952 209.5,189.5C 209.5,188.167 209.5,186.833 209.5,185.5C 207.833,185.5 206.167,185.5 204.5,185.5C 204.5,184.5 204.5,183.5 204.5,182.5C 201.5,182.833 200.167,181.5 200.5,178.5C 198.801,178.66 197.134,178.494 195.5,178C 194.833,176 193.5,174.667 191.5,174C 191.833,173.667 192.167,173.333 192.5,173C 185.918,166.063 181.085,157.563 178,147.5C 177.501,153.491 177.334,159.491 177.5,165.5C 176.345,158.345 176.178,151.012 177,143.5C 178.011,142.663 179.178,142.33 180.5,142.5C 179.917,139.511 178.584,136.845 176.5,134.5C 177.921,129.682 179.588,125.015 181.5,120.5C 182.978,120.238 184.311,120.571 185.5,121.5C 188.067,125.559 190.4,129.726 192.5,134C 196.141,136.294 199.807,138.627 203.5,141C 200.098,141.201 197.432,142.701 195.5,145.5C 201.549,146.135 207.549,146.968 213.5,148C 212.151,148.772 211.318,149.939 211,151.5C 209.23,149.582 207.063,149.082 204.5,150C 205.337,151.011 205.67,152.178 205.5,153.5C 208.568,153.547 211.568,154.047 214.5,155C 208.141,155.831 201.807,155.664 195.5,154.5C 196.452,150.145 197.619,149.812 199,153.5C 199.741,152.359 200.575,152.359 201.5,153.5C 201.06,152.047 201.726,150.881 203.5,150C 200.518,149.502 197.518,149.335 194.5,149.5C 194.167,153.5 193.833,153.5 193.5,149.5C 190.5,149.5 187.5,149.5 184.5,149.5C 184.351,150.552 184.517,151.552 185,152.5C 185.71,151.027 186.876,150.36 188.5,150.5C 188.5,151.5 188.5,152.5 188.5,153.5C 190.655,153.372 192.655,153.872 194.5,155C 191.833,155.333 189.167,155.667 186.5,156C 187.667,156.5 188.5,157.333 189,158.5C 189.333,157.833 189.667,157.167 190,156.5C 194.75,157.804 199.75,158.47 205,158.5C 209.833,158.167 214.667,157.833 219.5,157.5C 220.236,155.459 221.069,153.459 222,151.5C 223.242,153.541 225.075,154.707 227.5,155C 227.342,158.288 227.342,161.788 227.5,165.5 Z"/></g>
<g><path style="opacity:1" fill="#888ea0" d="M 269.5,142.5 C 269.5,144.833 269.5,147.167 269.5,149.5C 268.577,150.303 267.577,150.47 266.5,150C 266.846,147.06 267.846,144.56 269.5,142.5 Z"/></g>
<g><path style="opacity:1" fill="#6d7790" d="M 288.5,150.5 C 286.248,150.084 284.748,148.751 284,146.5C 281.787,148.581 279.12,149.915 276,150.5C 274.416,150.012 273.249,149.012 272.5,147.5C 271.893,147.624 271.56,147.957 271.5,148.5C 270.957,148.44 270.624,148.107 270.5,147.5C 271.154,145.885 271.654,144.218 272,142.5C 272.689,143.357 273.522,144.023 274.5,144.5C 276.276,142.553 278.276,142.22 280.5,143.5C 280.062,144.506 279.396,144.506 278.5,143.5C 277.571,144.689 277.238,146.022 277.5,147.5C 280.635,147.452 282.302,145.785 282.5,142.5C 283.517,145.028 284.684,145.028 286,142.5C 285.315,145.505 286.148,148.171 288.5,150.5 Z"/></g>
<g><path style="opacity:1" fill="#d4d7ea" d="M 70.5,152.5 C 73.8362,153.168 77.0028,153.168 80,152.5C 81.892,153.13 83.5587,154.13 85,155.5C 85.4828,154.552 85.6495,153.552 85.5,152.5C 91.0529,153.648 96.5529,153.648 102,152.5C 103.439,154.014 104.939,154.347 106.5,153.5C 106.833,153.833 107.167,154.167 107.5,154.5C 106.758,155.287 105.925,155.953 105,156.5C 103.467,156.056 101.967,155.723 100.5,155.5C 99.646,156.522 98.646,157.355 97.5,158C 100.133,157.747 102.8,157.747 105.5,158C 106.357,158.689 107.023,159.522 107.5,160.5C 102.159,160.914 96.6587,161.247 91,161.5C 87.3969,161.45 84.0636,160.783 81,159.5C 79.9328,160.943 78.7662,162.276 77.5,163.5C 80.8177,164.67 84.151,164.67 87.5,163.5C 90.222,163.954 92.8886,164.62 95.5,165.5C 94.1667,166.5 92.8333,167.5 91.5,168.5C 81.1828,167.15 70.8494,166.816 60.5,167.5C 60.5,166.167 60.5,164.833 60.5,163.5C 61.8734,163.657 63.2068,163.49 64.5,163C 62.508,162.426 61.008,161.259 60,159.5C 58,162.167 56,162.167 54,159.5C 53.6667,159.833 53.3333,160.167 53,160.5C 52.5683,159.4 53.0683,158.733 54.5,158.5C 55.6473,158.818 56.4806,159.484 57,160.5C 59.724,159.224 62.724,158.558 66,158.5C 69.2209,158.541 72.3876,158.875 75.5,159.5C 80.0079,158.586 80.3412,157.253 76.5,155.5C 73.1133,156.467 69.4466,156.134 65.5,154.5C 67.2914,153.83 68.9581,153.163 70.5,152.5 Z"/></g>
<g><path style="opacity:1" fill="#3f7179" d="M 211.5,159.5 C 213.977,160.12 213.977,161.12 211.5,162.5C 209.333,162.833 207.167,163.167 205,163.5C 202.375,163.419 200.041,162.752 198,161.5C 196.246,163.25 194.079,163.917 191.5,163.5C 191.5,162.5 191.5,161.5 191.5,160.5C 198.354,160.824 205.021,160.491 211.5,159.5 Z"/></g>
<g><path style="opacity:1" fill="#1b2e52" d="M 262.5,173.5 C 260.975,175.036 258.975,176.036 256.5,176.5C 260.459,177.327 264.459,177.827 268.5,178C 266.519,178.605 266.185,179.605 267.5,181C 274.818,181.283 282.152,181.449 289.5,181.5C 289.259,178.001 290.092,177.668 292,180.5C 296.333,180.167 300.667,179.833 305,179.5C 306.572,181.589 308.405,181.589 310.5,179.5C 311.498,187.807 311.831,196.14 311.5,204.5C 308.813,204.336 306.146,204.503 303.5,205C 306.817,205.498 310.15,205.665 313.5,205.5C 309.353,206.325 305.019,206.825 300.5,207C 305.155,207.499 309.821,207.666 314.5,207.5C 309.695,208.487 304.695,208.821 299.5,208.5C 299.5,207.5 299.5,206.5 299.5,205.5C 293.833,205.336 293.5,205.003 298.5,204.5C 298.349,201.15 296.515,199.484 293,199.5C 290.473,199.67 289.973,200.67 291.5,202.5C 287.78,202.887 285.78,204.887 285.5,208.5C 282.201,209.376 278.868,209.543 275.5,209C 279.681,208.648 282.015,206.481 282.5,202.5C 280.549,202.227 279.049,202.893 278,204.5C 276.299,202.59 274.133,201.423 271.5,201C 274.693,199.946 277.693,198.446 280.5,196.5C 276.876,194.965 273.709,195.632 271,198.5C 270.904,195.549 270.071,192.882 268.5,190.5C 267.682,192.108 267.015,193.775 266.5,195.5C 267.5,195.5 268.5,195.5 269.5,195.5C 265.049,205.295 262.716,204.629 262.5,193.5C 261.692,193.808 261.025,194.308 260.5,195C 262.037,197.313 262.537,199.813 262,202.5C 261.667,201.833 261.333,201.167 261,200.5C 260.333,201.833 259.667,203.167 259,204.5C 258.29,203.027 257.124,202.36 255.5,202.5C 256.931,199.646 257.764,196.646 258,193.5C 255.619,194.983 253.119,195.816 250.5,196C 251.833,196.333 253.167,196.667 254.5,197C 255.833,197.667 255.833,198.333 254.5,199C 251.967,199.852 249.967,199.186 248.5,197C 250.589,195.043 251.423,192.876 251,190.5C 252.676,191.061 254.009,192.061 255,193.5C 255.903,192.299 257.069,191.465 258.5,191C 256.256,190.004 254.423,188.504 253,186.5C 253.046,183.367 252.046,180.7 250,178.5C 249.316,180.479 249.816,182.146 251.5,183.5C 251.154,184.696 250.654,184.696 250,183.5C 249.667,185.5 249.333,187.5 249,189.5C 247.455,190.821 246.289,190.488 245.5,188.5C 246.415,187.672 247.081,186.672 247.5,185.5C 246.351,182.478 246.351,179.478 247.5,176.5C 249.555,174.445 251.221,172.112 252.5,169.5C 250.997,168.443 249.33,167.776 247.5,167.5C 245.297,168.767 242.963,169.767 240.5,170.5C 240.5,170.167 240.5,169.833 240.5,169.5C 241.451,168.081 241.784,166.415 241.5,164.5C 245.052,164.221 248.219,163.555 251,162.5C 253.014,164.183 254.68,166.183 256,168.5C 257,168.167 258,167.833 259,167.5C 259.941,169.727 261.108,171.727 262.5,173.5 Z"/></g>
<g><path style="opacity:1" fill="#074951" d="M 172.5,131.5 C 173.327,136.985 173.827,142.652 174,148.5C 174.333,144.833 174.667,141.167 175,137.5C 175.333,147.167 175.667,156.833 176,166.5C 176.333,167.167 176.667,167.833 177,168.5C 178.728,167.648 178.895,166.648 177.5,165.5C 177.334,159.491 177.501,153.491 178,147.5C 181.085,157.563 185.918,166.063 192.5,173C 192.167,173.333 191.833,173.667 191.5,174C 193.5,174.667 194.833,176 195.5,178C 197.134,178.494 198.801,178.66 200.5,178.5C 200.167,181.5 201.5,182.833 204.5,182.5C 204.5,183.5 204.5,184.5 204.5,185.5C 206.167,185.5 207.833,185.5 209.5,185.5C 209.5,186.833 209.5,188.167 209.5,189.5C 204.002,189.952 198.668,189.286 193.5,187.5C 192.014,188.814 190.347,189.814 188.5,190.5C 186.527,189.669 184.527,189.502 182.5,190C 183.833,190.667 185.167,191.333 186.5,192C 185.833,192.333 185.167,192.667 184.5,193C 187.234,193.21 189.734,194.044 192,195.5C 192.833,194.667 193.667,193.833 194.5,193C 200.157,191.108 205.823,191.108 211.5,193C 212.517,194.049 212.684,195.216 212,196.5C 209.978,197.991 208.312,197.658 207,195.5C 206.517,196.448 206.351,197.448 206.5,198.5C 204.167,198.5 201.833,198.5 199.5,198.5C 199.719,197.325 199.386,196.325 198.5,195.5C 197.476,196.852 196.476,198.185 195.5,199.5C 187.833,199.5 180.167,199.5 172.5,199.5C 172.5,176.833 172.5,154.167 172.5,131.5 Z"/></g>
<g><path style="opacity:1" fill="#6e2f39" d="M 322.5,109.5 C 322.5,111.5 322.5,113.5 322.5,115.5C 322.5,141.167 322.5,166.833 322.5,192.5C 322.5,194.5 322.5,196.5 322.5,198.5C 342.167,198.5 361.833,198.5 381.5,198.5C 381.5,182.833 381.5,167.167 381.5,151.5C 381.5,138.167 381.5,124.833 381.5,111.5C 381.5,110.833 381.5,110.167 381.5,109.5C 382.167,124.33 382.5,139.33 382.5,154.5C 382.499,169.849 381.833,184.849 380.5,199.5C 379.833,199.5 379.167,199.5 378.5,199.5C 359.5,199.5 340.5,199.5 321.5,199.5C 321.5,169.833 321.5,140.167 321.5,110.5C 321.5,109.833 321.833,109.5 322.5,109.5 Z"/></g>
<g><path style="opacity:1" fill="#8c3f36" d="M 381.5,111.5 C 381.5,124.833 381.5,138.167 381.5,151.5C 380.833,165.339 380.167,179.339 379.5,193.5C 378.167,194.167 377.167,195.167 376.5,196.5C 360.177,197.666 343.844,197.833 327.5,197C 326.61,194.609 324.943,193.109 322.5,192.5C 322.5,166.833 322.5,141.167 322.5,115.5C 323.833,115.167 325.167,114.833 326.5,114.5C 326.539,113.417 326.873,112.417 327.5,111.5C 345.564,110.182 363.564,110.182 381.5,111.5 Z"/></g>
<g><path style="opacity:1" fill="#600313" d="M 324.5,119.5 C 325.161,120.718 325.828,122.051 326.5,123.5C 327.086,123.291 327.586,122.957 328,122.5C 328.067,125.047 328.901,127.214 330.5,129C 328.161,131.269 328.828,132.769 332.5,133.5C 335.069,137.666 337.736,141.832 340.5,146C 338.75,147.319 336.75,147.819 334.5,147.5C 334.5,149.5 334.5,151.5 334.5,153.5C 337.167,153.5 339.833,153.5 342.5,153.5C 342.5,155.167 342.5,156.833 342.5,158.5C 344.833,158.5 347.167,158.5 349.5,158.5C 349.459,154.757 350.126,154.59 351.5,158C 354.817,158.498 358.15,158.665 361.5,158.5C 361.714,156.856 361.38,155.356 360.5,154C 361.448,153.517 362.448,153.351 363.5,153.5C 363.247,151.173 363.914,149.173 365.5,147.5C 366.223,149.164 365.89,150.831 364.5,152.5C 367.064,153.121 369.564,153.454 372,153.5C 376.638,149.102 379.138,150.102 379.5,156.5C 379.83,163.2 379.497,169.866 378.5,176.5C 376.833,174.833 375.833,175.167 375.5,177.5C 375.622,179.994 376.622,180.661 378.5,179.5C 379.491,183.445 379.824,187.445 379.5,191.5C 378.5,191.5 377.5,191.5 376.5,191.5C 376.335,189.173 375.669,187.007 374.5,185C 375.833,184.333 376.833,183.333 377.5,182C 374.807,182.863 373.14,181.697 372.5,178.5C 374.162,176.689 374.328,175.022 373,173.5C 372.667,173.833 372.333,174.167 372,174.5C 372.155,172.189 372.155,169.856 372,167.5C 370.294,168.308 369.461,169.641 369.5,171.5C 365.348,171.631 364.682,173.131 367.5,176C 366.132,177.34 364.799,178.674 363.5,180C 363.667,180.5 363.833,181 364,181.5C 365.933,178.615 368.433,177.948 371.5,179.5C 369.941,181.131 367.941,181.964 365.5,182C 367.087,182.862 368.754,183.529 370.5,184C 368.377,185.194 366.043,185.86 363.5,186C 364.448,186.483 365.448,186.649 366.5,186.5C 366.911,189.276 366.078,189.943 364,188.5C 362.5,189.5 361,190.5 359.5,191.5C 362.352,192.245 364.352,193.911 365.5,196.5C 353.162,196.667 340.829,196.5 328.5,196C 327.845,194.513 326.845,193.347 325.5,192.5C 324.5,168.176 324.167,143.842 324.5,119.5 Z"/></g>
<g><path style="opacity:1" fill="#711524" d="M 379.5,156.5 C 379.138,150.102 376.638,149.102 372,153.5C 369.564,153.454 367.064,153.121 364.5,152.5C 365.89,150.831 366.223,149.164 365.5,147.5C 363.914,149.173 363.247,151.173 363.5,153.5C 362.448,153.351 361.448,153.517 360.5,154C 361.38,155.356 361.714,156.856 361.5,158.5C 358.15,158.665 354.817,158.498 351.5,158C 350.126,154.59 349.459,154.757 349.5,158.5C 347.167,158.5 344.833,158.5 342.5,158.5C 342.5,156.833 342.5,155.167 342.5,153.5C 339.833,153.5 337.167,153.5 334.5,153.5C 334.5,151.5 334.5,149.5 334.5,147.5C 336.75,147.819 338.75,147.319 340.5,146C 337.736,141.832 335.069,137.666 332.5,133.5C 328.828,132.769 328.161,131.269 330.5,129C 328.901,127.214 328.067,125.047 328,122.5C 327.586,122.957 327.086,123.291 326.5,123.5C 325.828,122.051 325.161,120.718 324.5,119.5C 324.392,117.486 325.058,115.82 326.5,114.5C 328.798,112.428 331.631,111.428 335,111.5C 348.57,111.22 362.07,111.554 375.5,112.5C 376.48,113.981 377.647,115.315 379,116.5C 379.5,129.829 379.667,143.163 379.5,156.5 Z"/></g>
<g><path style="opacity:1" fill="#721324" d="M 322.5,109.5 C 342.167,109.5 361.833,109.5 381.5,109.5C 381.5,110.167 381.5,110.833 381.5,111.5C 363.564,110.182 345.564,110.182 327.5,111.5C 326.873,112.417 326.539,113.417 326.5,114.5C 325.167,114.833 323.833,115.167 322.5,115.5C 322.5,113.5 322.5,111.5 322.5,109.5 Z"/></g>
<g><path style="opacity:1" fill="#626e88" d="M 262.5,173.5 C 262.5,172.5 262.5,171.5 262.5,170.5C 269.167,170.5 275.833,170.5 282.5,170.5C 282.5,171.5 282.5,172.5 282.5,173.5C 277.678,174.065 273.178,173.399 269,171.5C 267.211,173.229 265.044,173.896 262.5,173.5 Z"/></g>
<g><path style="opacity:1" fill="#597795" d="M 314.5,207.5 C 309.821,207.666 305.155,207.499 300.5,207C 305.019,206.825 309.353,206.325 313.5,205.5C 313.333,190.83 313.5,176.163 314,161.5C 314.5,176.83 314.667,192.163 314.5,207.5 Z"/></g>
<g><path style="opacity:1" fill="#721e20" d="M 379.5,191.5 C 375.975,195.765 371.308,197.431 365.5,196.5C 364.352,193.911 362.352,192.245 359.5,191.5C 361,190.5 362.5,189.5 364,188.5C 366.078,189.943 366.911,189.276 366.5,186.5C 365.448,186.649 364.448,186.483 363.5,186C 366.043,185.86 368.377,185.194 370.5,184C 368.754,183.529 367.087,182.862 365.5,182C 367.941,181.964 369.941,181.131 371.5,179.5C 368.433,177.948 365.933,178.615 364,181.5C 363.833,181 363.667,180.5 363.5,180C 364.799,178.674 366.132,177.34 367.5,176C 364.682,173.131 365.348,171.631 369.5,171.5C 369.461,169.641 370.294,168.308 372,167.5C 372.155,169.856 372.155,172.189 372,174.5C 372.333,174.167 372.667,173.833 373,173.5C 374.328,175.022 374.162,176.689 372.5,178.5C 373.14,181.697 374.807,182.863 377.5,182C 376.833,183.333 375.833,184.333 374.5,185C 375.669,187.007 376.335,189.173 376.5,191.5C 377.5,191.5 378.5,191.5 379.5,191.5 Z"/></g>
<g><path style="opacity:1" fill="#691519" d="M 381.5,151.5 C 381.5,167.167 381.5,182.833 381.5,198.5C 361.833,198.5 342.167,198.5 322.5,198.5C 322.5,196.5 322.5,194.5 322.5,192.5C 324.943,193.109 326.61,194.609 327.5,197C 343.844,197.833 360.177,197.666 376.5,196.5C 377.167,195.167 378.167,194.167 379.5,193.5C 380.167,179.339 380.833,165.339 381.5,151.5 Z"/></g>
<g><path style="opacity:1" fill="#abacb8" d="M 321.5,110.5 C 321.5,140.167 321.5,169.833 321.5,199.5C 340.5,199.5 359.5,199.5 378.5,199.5C 369.191,200.832 359.524,201.499 349.5,201.5C 339.592,201.494 329.759,201.161 320,200.5C 319.333,170.833 319.333,141.167 320,111.5C 320.383,110.944 320.883,110.611 321.5,110.5 Z"/></g>
<g><path style="opacity:1" fill="#c8c1d0" d="M 381.5,109.5 C 361.833,109.5 342.167,109.5 322.5,109.5C 321.833,109.5 321.5,109.833 321.5,110.5C 320.883,110.611 320.383,110.944 320,111.5C 319.333,141.167 319.333,170.833 320,200.5C 329.759,201.161 339.592,201.494 349.5,201.5C 359.524,201.499 369.191,200.832 378.5,199.5C 379.167,199.5 379.833,199.5 380.5,199.5C 380.586,200.496 380.252,201.329 379.5,202C 359.5,202.667 339.5,202.667 319.5,202C 319,201.5 318.5,201 318,200.5C 317.517,169.794 317.35,139.294 317.5,109C 339.004,108.171 360.337,108.337 381.5,109.5 Z"/></g>
<g><path style="opacity:1" fill="#abb5ec" d="M 34.5,192.5 C 34.5,197.167 34.5,201.833 34.5,206.5C 48.8333,206.5 63.1667,206.5 77.5,206.5C 77.5,201.833 77.5,197.167 77.5,192.5C 78.4872,197.305 78.8205,202.305 78.5,207.5C 63.5,207.5 48.5,207.5 33.5,207.5C 33.1795,202.305 33.5128,197.305 34.5,192.5 Z"/></g>
<g><path style="opacity:1" fill="#4c62d4" d="M 34.5,192.5 C 48.8333,192.5 63.1667,192.5 77.5,192.5C 77.5,197.167 77.5,201.833 77.5,206.5C 63.1667,206.5 48.8333,206.5 34.5,206.5C 34.5,201.833 34.5,197.167 34.5,192.5 Z"/></g>
<g><path style="opacity:1" fill="#abb5ec" d="M 60.5,198.5 C 64.1817,198.335 67.8484,198.501 71.5,199C 67.4541,202.437 63.7875,202.27 60.5,198.5 Z"/></g>
<g><path style="opacity:1" fill="#9faae9" d="M 41.5,197.5 C 47.1619,197.515 52.8285,197.849 58.5,198.5C 58.719,199.675 58.3857,200.675 57.5,201.5C 52.3479,201.379 47.0146,201.379 41.5,201.5C 41.5,200.167 41.5,198.833 41.5,197.5 Z"/></g>
<g><path style="opacity:1" fill="#a9abb7" d="M 239.5,99.5 C 239.168,136.67 239.502,173.67 240.5,210.5C 264.25,210.235 287.917,210.235 311.5,210.5C 311.389,211.117 311.056,211.617 310.5,212C 285.928,212.827 261.428,212.661 237,211.5C 236.333,174.833 236.333,138.167 237,101.5C 237.417,100.244 238.25,99.5774 239.5,99.5 Z"/></g>
<g><path style="opacity:1" fill="#000000" d="M -0.5,239.5 C 138.833,239.5 278.167,239.5 417.5,239.5C 417.5,252.833 417.5,266.167 417.5,279.5C 278.167,279.5 138.833,279.5 -0.5,279.5C -0.5,266.167 -0.5,252.833 -0.5,239.5 Z"/></g>
</svg>
